<?xml version="1.0" encoding="UTF-8" standalone="no"?>
<!-- Created with Inkscape (http://www.inkscape.org/) -->

<svg
   xmlns:dc="http://purl.org/dc/elements/1.1/"
   xmlns:cc="http://creativecommons.org/ns#"
   xmlns:rdf="http://www.w3.org/1999/02/22-rdf-syntax-ns#"
   xmlns:svg="http://www.w3.org/2000/svg"
   xmlns="http://www.w3.org/2000/svg"
   xmlns:xlink="http://www.w3.org/1999/xlink"
   version="1.0"
   width="24"
   height="24"
   id="svg2693">
  <metadata
     id="metadata54">
    <rdf:RDF>
      <cc:Work
         rdf:about="">
        <dc:format>image/svg+xml</dc:format>
        <dc:type
           rdf:resource="http://purl.org/dc/dcmitype/StillImage" />
        <dc:title></dc:title>
      </cc:Work>
    </rdf:RDF>
  </metadata>
  <defs
     id="defs2695">
    <linearGradient
       id="linearGradient4119">
      <stop
         id="stop4121"
         style="stop-color:#b3b3b3;stop-opacity:1"
         offset="0" />
      <stop
         id="stop4123"
         style="stop-color:#727272;stop-opacity:0.94117647"
         offset="1" />
    </linearGradient>
    <linearGradient
       x1="32.301254"
       y1="31.665981"
       x2="32.301254"
       y2="40.232422"
       id="linearGradient3973-6"
       xlink:href="#linearGradient3934-8"
       gradientUnits="userSpaceOnUse"
       gradientTransform="matrix(1.1639013,0,0,1.1673459,-24.595471,-24.965154)" />
    <linearGradient
       id="linearGradient3934-8">
      <stop
         id="stop3936-9"
         style="stop-color:#f5f5f5;stop-opacity:1"
         offset="0" />
      <stop
         id="stop3938-1"
         style="stop-color:#dcdcdc;stop-opacity:1"
         offset="1" />
    </linearGradient>
    <linearGradient
       x1="13"
       y1="2"
       x2="13"
       y2="21"
       id="linearGradient4125"
       xlink:href="#linearGradient4119"
       gradientUnits="userSpaceOnUse" />
  </defs>
  <g
     id="g4114">
    <path
       d="m 12.809549,1.5645895 c -0.258097,0.1046525 -0.440789,0.3734211 -0.550242,0.6301508 -0.24173,0.5669928 -0.248698,1.3391361 -0.395428,2.944846 -0.143723,1.572806 -0.127126,3.1338742 -0.277588,4.6306313 -0.04748,0.4723024 -0.0837,0.8021144 -0.11341,0.9233814 -0.04138,0.168877 -0.146472,0.08924 -0.218232,0 -0.07177,-0.08924 -0.20767,-0.47548 -0.327347,-0.8390292 C 10.687947,9.127471 10.440811,8.0995459 10.272607,7.0091642 10.139082,6.143589 9.9931714,5.4445975 9.8361444,4.8933498 9.6791184,4.3421023 9.5315714,3.9385158 9.3269378,3.6895244 9.1721331,3.5011626 8.9934137,3.3677654 8.817731,3.2882492 c -0.1756828,-0.079519 -0.3729606,-0.075317 -0.5455788,0 C 7.9269158,3.4388766 7.7366343,3.8252961 7.6174577,4.382636 7.4926503,4.9663149 7.5270687,6.0947507 7.6538297,7.5563577 7.7805902,9.0179646 8.0117386,10.77644 8.3085241,12.517577 c 0.1315896,0.771993 0.2123096,1.35288 0.2182315,1.751019 0.00594,0.398138 -0.05965,0.601813 -0.1091157,0.656632 C 8.2237805,15.21673 8.0351912,14.718685 7.944805,14.669871 7.5447116,14.091459 6.3851319,13.007058 5.76249,12.627016 5.1431479,12.248988 4.4306913,11.993574 3.7620347,12.043342 c -0.7992906,0.05949 -0.9888762,0.45889 -1.2366451,0.984949 -0.096057,0.203945 0.1005145,0.46279 0.2546034,0.729591 0.1540912,0.2668 0.383488,0.547478 0.6546944,0.83903 0.2398731,0.257865 1.1115409,1.391055 1.8185958,2.51709 0.9510575,1.514623 2.0963294,3.084946 3.2734724,4.268108 0.5083188,0.510917 0.8752643,0.871613 1.3457608,1.057907 2.2883196,0.07475 5.0913146,0.07059 7.4926146,0.03647 0.541806,-0.245589 1.093441,-0.988332 1.418505,-1.56862 0.941313,-1.680388 1.46708,-3.854449 1.782224,-5.617853 0.234244,-1.310725 0.289714,-2.197118 0.436462,-3.210201 0.163007,-1.125329 0.309696,-2.3312987 0.400092,-3.3196389 0.04519,-0.4941702 0.05817,-0.9351515 0.07274,-1.2767846 0.01457,-0.3416331 0.04774,-0.4288723 0,-0.7295911 -0.04774,-0.3007189 -0.179331,-0.5914416 -0.643431,-0.733496 -0.4641,-0.1420543 -0.751348,0.027316 -0.943293,0.2273418 -0.310677,0.3237563 -0.536994,1.3124937 -0.749949,2.0521684 -0.198527,0.882329 -0.424894,1.8191124 -0.648529,2.6189274 -0.05456,0.195129 -0.123989,0.368803 -0.185681,0.512052 -0.06424,0.149163 -0.145524,0.02055 -0.152002,-0.0027 -0.03652,-0.130956 -0.02246,-0.318017 -0.02332,-0.552159 -0.0022,-0.602162 0.01597,-1.5159683 0.03637,-2.7724457 0.02578,-1.5874165 -0.03096,-2.491157 0,-3.1007626 0.03073,-0.6049923 -0.06268,-1.1516813 -0.436469,-1.422634 -0.275075,-0.1993932 -0.765385,-0.2205759 -1.091157,-0.036479 -0.514838,0.2909387 -0.665082,0.9088768 -0.727439,1.4227027 -0.05445,0.4486718 -0.170109,1.5970693 -0.290975,2.5900488 -0.119842,0.9845663 -0.24473,1.7245516 -0.363719,2.225253 -0.09472,0.3985528 -0.177756,0.5453538 -0.266223,0.7919268 -0.08847,0.246572 -0.245043,0.06289 -0.283732,-0.01601 C 14.567696,10.276281 14.610405,10.03071 14.600248,9.7632814 14.569615,8.9574447 14.388661,7.2899728 14.33717,5.7232593 14.299215,4.5683222 14.292266,3.3443099 14.118938,2.2941807 14.071148,2.0046287 13.908379,1.7712062 13.682475,1.6375487 13.430987,1.4887552 13.080247,1.4548275 12.809549,1.5645895 z"
       id="path3896-3"
       style="color:#000000;fill:url(#linearGradient3973-6);fill-opacity:1;fill-rule:nonzero;stroke:none;stroke-width:0.99999988;marker:none;visibility:visible;display:inline;overflow:visible;enable-background:accumulate" />
    <path
       d="m 13,2.03125 c 0.09807,-0.039766 0.332687,-0.030763 0.4375,0.03125 0.09692,0.057345 0.162384,0.1603256 0.1875,0.3125 0.163511,0.9906538 0.18048,2.2104744 0.21875,3.375 0.05237,1.59351 0.221212,3.2739395 0.25,4.03125 0.0077,0.2027087 -0.05028,0.57881 0.15625,1 0.06921,0.141133 0.120935,0.259774 0.375,0.375 0.127033,0.05761 0.354157,0.07236 0.53125,-0.03125 0.177093,-0.103615 0.267885,-0.250656 0.3125,-0.375 C 15.544935,10.537659 15.646467,10.341885 15.75,9.90625 15.876414,9.3743031 16.003755,8.6210965 16.125,7.625 16.24683,6.6240988 16.353891,5.4626901 16.40625,5.03125 16.462811,4.5651833 16.587894,4.1309954 16.875,3.96875 16.999389,3.8984566 17.377396,3.9564324 17.4375,4 c 0.14708,0.1066154 0.246102,0.430266 0.21875,0.96875 -0.0338,0.6655119 0.02554,1.552574 0,3.125 -0.02039,1.2555934 -0.03349,2.167182 -0.03125,2.78125 7.83e-4,0.213148 -0.04728,0.405885 0.03125,0.6875 0.04219,0.151432 0.08784,0.136849 0.125,0.1875 0.03716,0.05065 0.07603,0.124758 0.1875,0.1875 0.111466,0.06274 0.326042,0.08882 0.5,0 0.173958,-0.08882 0.239713,-0.216053 0.28125,-0.3125 0.06586,-0.152923 0.155287,-0.335529 0.21875,-0.5625 0.224816,-0.80404 0.458098,-1.7458593 0.65625,-2.625 0.0022,-0.00986 -0.0022,-0.021406 0,-0.03125 0.107036,-0.3740968 0.200388,-0.77579 0.3125,-1.125 C 20.052509,6.9230171 20.228725,6.6159208 20.25,6.59375 20.367027,6.471796 20.384968,6.4073992 20.6875,6.5 c 0.153416,0.046959 0.188859,0.085498 0.21875,0.125 0.02989,0.039502 0.04587,0.1140073 0.0625,0.21875 0.03977,0.2505098 0.01579,0.2547112 0,0.625 -0.01481,0.3473031 -0.01898,0.7740466 -0.0625,1.25 C 20.816963,9.6949701 20.661842,10.88271 20.5,12 c -0.150117,1.036342 -0.207719,1.901748 -0.4375,3.1875 -0.310722,1.738658 -0.828507,3.879529 -1.71875,5.46875 -0.281729,0.502928 -0.803973,1.128817 -1.125,1.3125 -2.318815,0.03179 -4.978037,0.03712 -7.1875,-0.03125 C 9.6948368,21.794648 9.3667572,21.525521 8.875,21.03125 7.7395046,19.889949 6.6251915,18.337087 5.6875,16.84375 4.9623671,15.688925 4.1384931,14.600445 3.8125,14.25 3.554525,13.972672 3.3413119,13.712209 3.21875,13.5 3.1363753,13.35737 3.0345938,13.25746 3,13.1875 2.99761,13.1827 3.00199,13.16061 3,13.15625 3.096568,12.959035 3.2038762,12.793852 3.28125,12.71875 3.373013,12.62968 3.4925316,12.555065 3.8125,12.53125 4.3286635,12.49283 4.9407191,12.721132 5.5,13.0625 c 0.4972527,0.303508 1.7219578,1.459109 2.03125,1.90625 l 0.0625,0.09375 c 0.00435,0.0061 0.023721,-0.01104 0.03125,0 l 0.03125,0.03125 c 0.029617,0.04426 0.06394,0.0867 0.125,0.15625 0.074493,0.08485 0.1798836,0.214087 0.4375,0.25 C 8.4403001,15.53088 8.6236232,15.357485 8.75,15.21875 L 8.78125,15.25 C 8.794821,15.23496 8.801072,15.23287 8.8125,15.21875 8.81994,15.20905 8.837419,15.19702 8.84375,15.1875 L 8.8125,15.15625 C 8.8935466,15.036061 8.9440811,14.933978 8.96875,14.8125 8.9998543,14.659332 9.0346485,14.477788 9.03125,14.25 9.0244308,13.791534 8.9453795,13.21706 8.8125,12.4375 8.5178587,10.708943 8.2814724,8.9438724 8.15625,7.5 8.0307299,6.0527011 8.0004273,4.9364364 8.09375,4.5 8.2000521,4.0028688 8.3490722,3.8022157 8.46875,3.75 8.5196335,3.7277984 8.583448,3.7311924 8.625,3.75 8.7253542,3.7954216 8.8290276,3.868014 8.9375,4 9.0487127,4.1353199 9.1917166,4.4975292 9.34375,5.03125 9.492625,5.5538798 9.649909,6.2423323 9.78125,7.09375 9.9534859,8.2102683 10.186344,9.2370515 10.4375,10 c 0.06097,0.185213 0.156147,0.396917 0.21875,0.5625 0.0626,0.165583 0.05868,0.238464 0.21875,0.4375 0.06506,0.08091 0.09804,0.213033 0.375,0.28125 0.13848,0.03411 0.366902,-0.007 0.5,-0.125 0.133098,-0.118001 0.1946,-0.245193 0.21875,-0.34375 0.05722,-0.233554 0.07731,-0.525568 0.125,-1 C 12.248039,8.277677 12.234323,6.7269742 12.375,5.1875 12.522921,3.5687528 12.539886,2.8257859 12.71875,2.40625 12.798857,2.2183531 12.942019,2.05476 13,2.03125 z"
       id="path3896-3-4-4"
       style="font-size:medium;font-style:normal;font-variant:normal;font-weight:normal;font-stretch:normal;text-indent:0;text-align:start;text-decoration:none;line-height:normal;letter-spacing:normal;word-spacing:normal;text-transform:none;direction:ltr;block-progression:tb;writing-mode:lr-tb;text-anchor:start;baseline-shift:baseline;color:#000000;fill:none;stroke:#ffffff;stroke-width:0.75;stroke-miterlimit:4;stroke-opacity:1;stroke-dasharray:none;marker:none;visibility:visible;display:inline;overflow:visible;enable-background:accumulate;font-family:Sans;-inkscape-font-specification:Sans" />
    <path
       d="m 12.809549,1.5645899 c -0.258097,0.1046525 -0.440789,0.3734211 -0.550242,0.6301508 -0.24173,0.5669928 -0.248698,1.3391361 -0.395428,2.944846 -0.143723,1.572806 -0.127126,3.1338742 -0.277588,4.6306313 -0.04748,0.472302 -0.0837,0.802114 -0.11341,0.923381 -0.04138,0.168877 -0.146472,0.08924 -0.218232,0 -0.07177,-0.08924 -0.20767,-0.47548 -0.327347,-0.8390288 C 10.687947,9.1274714 10.440811,8.0995463 10.272607,7.0091646 10.139082,6.1435894 9.9931714,5.4445979 9.8361444,4.8933502 9.6791184,4.3421027 9.5315714,3.9385162 9.3269378,3.6895248 9.1721331,3.501163 8.9934137,3.3677658 8.817731,3.2882496 c -0.1756828,-0.079519 -0.3729606,-0.075317 -0.5455788,0 C 7.9269158,3.438877 7.7366343,3.8252965 7.6174577,4.3826364 7.4926503,4.9663153 7.5270687,6.0947511 7.6538297,7.5563581 7.7805902,9.017965 8.0117386,10.77644 8.3085241,12.517577 c 0.1315896,0.771993 0.2123096,1.35288 0.2182315,1.751019 0.00594,0.398138 -0.05965,0.601813 -0.1091157,0.656632 C 8.2237805,15.21673 8.0351912,14.718685 7.944805,14.669871 7.5447116,14.091459 6.3851319,13.007058 5.76249,12.627016 5.1431479,12.248988 4.4306913,11.993574 3.7620347,12.043342 c -0.7992906,0.05949 -0.9888762,0.45889 -1.2366451,0.984949 -0.096057,0.203945 0.1005145,0.46279 0.2546034,0.729591 0.1540912,0.2668 0.383488,0.547478 0.6546944,0.83903 0.2398731,0.257865 1.1115409,1.391055 1.8185958,2.51709 0.9510575,1.514623 2.0963294,3.084946 3.2734724,4.268108 0.5083188,0.510917 0.8752643,0.871613 1.3457608,1.057907 2.2883196,0.07475 5.0913146,0.07059 7.4926146,0.03647 0.541806,-0.245589 1.093441,-0.988332 1.418505,-1.56862 0.941313,-1.680388 1.46708,-3.854449 1.782224,-5.617853 0.234244,-1.310725 0.289714,-2.197118 0.436462,-3.210201 0.163007,-1.125329 0.309696,-2.3312983 0.400092,-3.3196385 0.04519,-0.4941702 0.05817,-0.9351515 0.07274,-1.2767846 0.01457,-0.3416331 0.04774,-0.4288723 0,-0.7295911 -0.04774,-0.3007189 -0.179331,-0.5914416 -0.643431,-0.733496 -0.4641,-0.1420543 -0.751348,0.027316 -0.943293,0.2273418 -0.310677,0.3237563 -0.536994,1.3124937 -0.749949,2.0521684 -0.198527,0.882329 -0.424894,1.819112 -0.648529,2.618927 -0.05456,0.195129 -0.123989,0.368803 -0.185681,0.512052 -0.06424,0.149163 -0.145524,0.02055 -0.152002,-0.0027 -0.03652,-0.130956 -0.02246,-0.318017 -0.02332,-0.552159 -0.0022,-0.602162 0.01597,-1.5159679 0.03637,-2.7724453 0.02578,-1.5874165 -0.03096,-2.491157 0,-3.1007626 0.03073,-0.6049923 -0.06268,-1.1516813 -0.436469,-1.422634 -0.275075,-0.1993932 -0.765385,-0.2205759 -1.091157,-0.036479 -0.514838,0.2909387 -0.665082,0.9088768 -0.727439,1.4227027 -0.05445,0.4486718 -0.170109,1.5970693 -0.290975,2.5900488 -0.119842,0.9845663 -0.24473,1.7245516 -0.363719,2.225253 -0.09472,0.3985524 -0.177756,0.5453534 -0.266223,0.7919264 -0.08847,0.246572 -0.245043,0.06289 -0.283732,-0.01601 C 14.567696,10.276281 14.610405,10.03071 14.600248,9.7632818 14.569615,8.9574451 14.388661,7.2899732 14.33717,5.7232597 14.299215,4.5683226 14.292266,3.3443103 14.118938,2.2941811 14.071148,2.0046291 13.908379,1.7712066 13.682475,1.6375491 13.430987,1.4887556 13.080247,1.4548279 12.809549,1.5645899 z"
       id="path3896-3-4"
       style="color:#000000;fill:none;stroke:url(#linearGradient4125);stroke-width:0.99999988;stroke-linecap:butt;stroke-linejoin:miter;stroke-miterlimit:4;stroke-opacity:1;stroke-dasharray:none;stroke-dashoffset:0;marker:none;visibility:visible;display:inline;overflow:visible;enable-background:accumulate" />
  </g>
</svg>
