<?xml version="1.0" encoding="UTF-8" standalone="no"?>
<svg
   xmlns:dc="http://purl.org/dc/elements/1.1/"
   xmlns:cc="http://web.resource.org/cc/"
   xmlns:rdf="http://www.w3.org/1999/02/22-rdf-syntax-ns#"
   xmlns:svg="http://www.w3.org/2000/svg"
   xmlns="http://www.w3.org/2000/svg"
   xmlns:sodipodi="http://sodipodi.sourceforge.net/DTD/sodipodi-0.dtd"
   xmlns:inkscape="http://www.inkscape.org/namespaces/inkscape"
   version="1.1"
   width="128"
   height="128"
   viewBox="0 0 128 128"
   overflow="visible"
   enable-background="new 0 0 128 128"
   xml:space="preserve"
   id="svg1947"
   sodipodi:version="0.32"
   inkscape:version="0.44"
   sodipodi:docname="2.svg"
   sodipodi:docbase="/home/emx/Desktop"><metadata
   id="metadata1984"><rdf:RDF><cc:Work
       rdf:about=""><dc:format>image/svg+xml</dc:format><dc:type
         rdf:resource="http://purl.org/dc/dcmitype/StillImage" /></cc:Work></rdf:RDF></metadata><defs
   id="defs1982" /><sodipodi:namedview
   inkscape:window-height="625"
   inkscape:window-width="914"
   inkscape:pageshadow="2"
   inkscape:pageopacity="0.0"
   guidetolerance="10.0"
   gridtolerance="10.0"
   objecttolerance="10.0"
   borderopacity="1.0"
   bordercolor="#666666"
   pagecolor="#ffffff"
   id="base"
   inkscape:zoom="3.1796875"
   inkscape:cx="64"
   inkscape:cy="64"
   inkscape:window-x="177"
   inkscape:window-y="131"
   inkscape:current-layer="svg1947" />
	<path
   d="M 49.29,121.92321 L 7.062,79.69621 C 6.874,79.50821 6.769,79.25421 6.769,78.98921 C 6.769,78.72421 6.874,78.46921 7.062,78.28221 L 49.29,36.05521 C 49.576,35.76821 50.006,35.68321 50.38,35.83821 C 50.754,35.99221 50.997,36.35821 50.997,36.76221 C 50.997,36.76221 50.997,59.25221 50.997,61.09721 C 52.847,61.09721 76.089,61.09721 76.089,61.09721 C 85.235,61.09721 107.169,52.88121 107.169,32.54221 C 107.169,12.87521 96.235,7.8542096 95.77,7.6502096 C 95.282,7.4352096 95.045,6.8752096 95.236,6.3772096 C 95.425,5.8792096 95.971,5.6172096 96.478,5.7822096 C 96.742,5.8672096 122.786,14.78921 122.786,52.14821 C 122.786,88.91921 88.511,96.87821 80.026,96.87821 C 80.026,96.87821 52.867,96.87821 50.998,96.87821 C 50.998,98.72321 50.998,121.21421 50.998,121.21421 C 50.998,121.61821 50.755,121.98321 50.381,122.13821 C 50.007,122.29321 49.577,122.20921 49.29,121.92321 z "
   id="path1949"
   style="opacity:0.2" />
	<path
   d="M 48.584,122.63221 C 48.583,122.63221 6.355,80.40321 6.355,80.40321 C 5.977,80.02521 5.769,79.52321 5.769,78.98921 C 5.769,78.45521 5.977,77.95321 6.355,77.57521 L 48.583,35.34821 C 49.156,34.77421 50.013,34.60421 50.762,34.91421 C 51.513,35.22421 51.997,35.94921 51.997,36.76221 C 51.997,36.76221 51.997,58.25821 51.997,60.09721 C 53.841,60.09721 76.089,60.09721 76.089,60.09721 C 84.942,60.09721 106.169,52.16821 106.169,32.54221 C 106.169,13.51821 95.81,8.7602096 95.368,8.5662096 C 94.389,8.1362096 93.92,7.0182096 94.301,6.0202096 C 94.681,5.0232096 95.774,4.4992096 96.788,4.8322096 C 97.056,4.9182096 123.785,14.02121 123.785,52.14821 C 123.785,89.74121 88.708,97.87821 80.025,97.87821 C 80.025,97.87821 53.861,97.87821 51.997,97.87821 C 51.997,99.71721 51.997,121.21421 51.997,121.21421 C 51.997,122.02621 51.513,122.75221 50.763,123.06221 C 50.014,123.37321 49.159,123.20421 48.584,122.63221 z "
   id="path1951"
   style="opacity:0.2" />
	<linearGradient
   id="XMLID_5_"
   gradientUnits="userSpaceOnUse"
   x1="66.4351"
   y1="99.3262"
   x2="63.268"
   y2="25.6596"
   gradientTransform="matrix(1,0,0,-1,0,127.9482)">
		<stop
   offset="0"
   style="stop-color:#D15F00"
   id="stop1954" />
		<stop
   offset="1"
   style="stop-color:#D96E00"
   id="stop1956" />
	</linearGradient>
	<path
   d="M 49.29,122.92321 L 7.062,80.69621 C 6.874,80.50821 6.769,80.25421 6.769,79.98921 C 6.769,79.72421 6.874,79.46921 7.062,79.28221 L 49.29,37.05521 C 49.576,36.76821 50.006,36.68321 50.38,36.83821 C 50.754,36.99221 50.997,37.35821 50.997,37.76221 C 50.997,37.76221 50.997,60.25221 50.997,62.09721 C 52.847,62.09721 76.089,62.09721 76.089,62.09721 C 85.235,62.09721 107.169,53.88121 107.169,33.54221 C 107.169,13.87521 96.235,8.8542096 95.77,8.6502096 C 95.282,8.4352096 95.045,7.8752096 95.236,7.3772096 C 95.425,6.8792096 95.971,6.6172096 96.478,6.7822096 C 96.742,6.8672096 122.786,15.78921 122.786,53.14821 C 122.786,89.91921 88.511,97.87821 80.026,97.87821 C 80.026,97.87821 52.867,97.87821 50.998,97.87821 C 50.998,99.72321 50.998,122.21421 50.998,122.21421 C 50.998,122.61821 50.755,122.98321 50.381,123.13821 C 50.007,123.29321 49.577,123.20921 49.29,122.92321 z "
   id="path1958"
   style="fill:url(#XMLID_5_)" />
	<linearGradient
   id="XMLID_6_"
   gradientUnits="userSpaceOnUse"
   x1="59.4351"
   y1="35.6001"
   x2="81.768"
   y2="130.6001"
   gradientTransform="matrix(1,0,0,-1,0,127.9482)">
		<stop
   offset="0"
   style="stop-color:#ED7C00"
   id="stop1961" />
		<stop
   offset="1"
   style="stop-color:#F89000"
   id="stop1963" />
	</linearGradient>
	<path
   d="M 80.025,96.87921 C 75.45,96.87921 49.997,96.87921 49.997,96.87921 L 49.997,122.21621 L 7.769,79.98921 L 49.997,37.76321 L 49.997,63.09721 C 49.997,63.09721 67.646,63.09721 76.089,63.09721 C 86.125,63.09721 108.169,54.18421 108.169,33.54221 C 108.169,12.89721 96.168,7.7322096 96.168,7.7322096 C 96.168,7.7322096 121.785,16.08221 121.785,53.14821 C 121.785,90.21421 86.71,96.87921 80.025,96.87921 z "
   id="path1965"
   style="fill:url(#XMLID_6_)" />
	<linearGradient
   id="XMLID_7_"
   gradientUnits="userSpaceOnUse"
   x1="46.8535"
   y1="23.5815"
   x2="92.8537"
   y2="120.0819"
   gradientTransform="matrix(1,0,0,-1,0,127.9482)">
		<stop
   offset="0"
   style="stop-color:#ED7C00"
   id="stop1968" />
		<stop
   offset="1"
   style="stop-color:#FFA000"
   id="stop1970" />
	</linearGradient>
	<path
   d="M 7.769,79.98921 L 49.997,37.76321 L 49.997,38.76321 L 8.269,80.48921 L 7.769,79.98921 z M 121.772,53.57121 C 121.569,26.07121 107.197,14.57321 100.076,10.56621 C 97.916,8.4902096 96.168,7.7332096 96.168,7.7332096 C 96.168,7.7332096 121.785,16.08321 121.785,53.14921 C 121.785,53.29421 121.773,53.42721 121.772,53.57121 z M 108.157,33.89521 C 108.16,34.11321 108.169,34.32221 108.169,34.54221 C 108.169,55.18421 86.125,64.09721 76.089,64.09721 C 67.647,64.09721 49.997,64.09721 49.997,64.09721 L 49.997,63.09721 C 49.997,63.09721 67.646,63.09721 76.089,63.09721 C 86.066,63.09721 107.904,54.28321 108.157,33.89521 z "
   id="path1972"
   style="fill:url(#XMLID_7_)" />
	<linearGradient
   id="XMLID_8_"
   gradientUnits="userSpaceOnUse"
   x1="8.522"
   y1="28.0591"
   x2="111.5223"
   y2="52.5592"
   gradientTransform="matrix(1,0,0,-1,0,127.9482)">
		<stop
   offset="0"
   style="stop-color:#FABD8C"
   id="stop1975" />
		<stop
   offset="1"
   style="stop-color:#F8A039"
   id="stop1977" />
	</linearGradient>
	<path
   d="M 56.223,74.85321 C 81.749,80.69821 113.595,79.52221 113.595,79.52221 C 102.802,93.70121 84.642,96.87921 80.025,96.87921 C 75.45,96.87921 49.997,96.87921 49.997,96.87921 L 49.997,122.21621 L 7.769,79.98921 L 23.66,64.09621 C 23.66,64.09621 30.697,69.00821 56.223,74.85321 z "
   id="path1979"
   style="fill:url(#XMLID_8_)" />
</svg>