<?xml version="1.0" encoding="UTF-8" standalone="no"?>
<svg
   xmlns:dc="http://purl.org/dc/elements/1.1/"
   xmlns:cc="http://web.resource.org/cc/"
   xmlns:rdf="http://www.w3.org/1999/02/22-rdf-syntax-ns#"
   xmlns:svg="http://www.w3.org/2000/svg"
   xmlns="http://www.w3.org/2000/svg"
   xmlns:sodipodi="http://sodipodi.sourceforge.net/DTD/sodipodi-0.dtd"
   xmlns:inkscape="http://www.inkscape.org/namespaces/inkscape"
   version="1.1"
   width="128"
   height="128"
   viewBox="0 0 128 128"
   overflow="visible"
   enable-background="new 0 0 128 128"
   xml:space="preserve"
   id="svg1947"
   sodipodi:version="0.32"
   inkscape:version="0.44"
   sodipodi:docname="270.svg"
   sodipodi:docbase="/home/emx/Desktop"><metadata
   id="metadata1984"><rdf:RDF><cc:Work
       rdf:about=""><dc:format>image/svg+xml</dc:format><dc:type
         rdf:resource="http://purl.org/dc/dcmitype/StillImage" /></cc:Work></rdf:RDF></metadata><defs
   id="defs1982" /><sodipodi:namedview
   inkscape:window-height="625"
   inkscape:window-width="914"
   inkscape:pageshadow="2"
   inkscape:pageopacity="0.0"
   guidetolerance="10.0"
   gridtolerance="10.0"
   objecttolerance="10.0"
   borderopacity="1.0"
   bordercolor="#666666"
   pagecolor="#ffffff"
   id="base"
   inkscape:zoom="3.1796875"
   inkscape:cx="64"
   inkscape:cy="64"
   inkscape:window-x="177"
   inkscape:window-y="131"
   inkscape:current-layer="svg1947" />
	<path
   d="M 6.8282047,79.461795 L 49.055205,121.6898 C 49.243205,121.8778 49.497205,121.9828 49.762205,121.9828 C 50.027205,121.9828 50.282205,121.8778 50.469205,121.6898 L 92.696205,79.461795 C 92.983205,79.175795 93.068205,78.745795 92.913205,78.371795 C 92.759205,77.997795 92.393205,77.754795 91.989205,77.754795 C 91.989205,77.754795 69.499205,77.754795 67.654205,77.754795 C 67.654205,75.904795 67.654205,52.662795 67.654205,52.662795 C 67.654205,43.516795 75.870205,21.582795 96.209205,21.582795 C 115.8762,21.582795 120.8972,32.516795 121.1012,32.981795 C 121.3162,33.469795 121.8762,33.706795 122.3742,33.515795 C 122.8722,33.326795 123.1342,32.780795 122.9692,32.273795 C 122.8842,32.009795 113.9622,5.9657953 76.603205,5.9657953 C 39.832205,5.9657953 31.873205,40.240795 31.873205,48.725795 C 31.873205,48.725795 31.873205,75.884795 31.873205,77.753795 C 30.028205,77.753795 7.5372047,77.753795 7.5372047,77.753795 C 7.1332047,77.753795 6.7682047,77.996795 6.6132047,78.370795 C 6.4582047,78.744795 6.5422047,79.174795 6.8282047,79.461795 z "
   id="path1949"
   style="opacity:0.2" />
	<path
   d="M 6.1188952,80.167105 C 6.1188952,80.168105 48.347895,122.3961 48.347895,122.3961 C 48.725895,122.7741 49.227895,122.9821 49.761895,122.9821 C 50.295895,122.9821 50.797895,122.7741 51.175895,122.3961 L 93.402895,80.168105 C 93.976895,79.595105 94.146895,78.738105 93.836895,77.989105 C 93.526895,77.238105 92.801895,76.754105 91.988895,76.754105 C 91.988895,76.754105 70.492895,76.754105 68.653895,76.754105 C 68.653895,74.910105 68.653895,52.662105 68.653895,52.662105 C 68.653895,43.809105 76.582895,22.582105 96.208895,22.582105 C 115.2329,22.582105 119.9909,32.941105 120.1849,33.383105 C 120.6149,34.362105 121.7329,34.831105 122.7309,34.450105 C 123.7279,34.070105 124.2519,32.977105 123.9189,31.963105 C 123.8329,31.695105 114.7299,4.9661048 76.602895,4.9661048 C 39.009895,4.9661048 30.872895,40.043105 30.872895,48.726105 C 30.872895,48.726105 30.872895,74.890105 30.872895,76.754105 C 29.033895,76.754105 7.5368952,76.754105 7.5368952,76.754105 C 6.7248952,76.754105 5.9988952,77.238105 5.6888952,77.988105 C 5.3778952,78.737105 5.5468952,79.592105 6.1188952,80.167105 z "
   id="path1951"
   style="opacity:0.2" />
	<linearGradient
   id="XMLID_5_"
   gradientUnits="userSpaceOnUse"
   x1="66.4351"
   y1="99.3262"
   x2="63.268"
   y2="25.6596"
   gradientTransform="matrix(0,-1,1,0,1.803195,127.7518)">
		<stop
   offset="0"
   style="stop-color:#D15F00"
   id="stop1954" />
		<stop
   offset="1"
   style="stop-color:#D96E00"
   id="stop1956" />
	</linearGradient>
	<path
   d="M 6.8282047,78.461795 L 49.055205,120.6898 C 49.243205,120.8778 49.497205,120.9828 49.762205,120.9828 C 50.027205,120.9828 50.282205,120.8778 50.469205,120.6898 L 92.696205,78.461795 C 92.983205,78.175795 93.068205,77.745795 92.913205,77.371795 C 92.759205,76.997795 92.393205,76.754795 91.989205,76.754795 C 91.989205,76.754795 69.499205,76.754795 67.654205,76.754795 C 67.654205,74.904795 67.654205,51.662795 67.654205,51.662795 C 67.654205,42.516795 75.870205,20.582795 96.209205,20.582795 C 115.8762,20.582795 120.8972,31.516795 121.1012,31.981795 C 121.3162,32.469795 121.8762,32.706795 122.3742,32.515795 C 122.8722,32.326795 123.1342,31.780795 122.9692,31.273795 C 122.8842,31.009795 113.9622,4.9657953 76.603205,4.9657953 C 39.832205,4.9657953 31.873205,39.240795 31.873205,47.725795 C 31.873205,47.725795 31.873205,74.884795 31.873205,76.753795 C 30.028205,76.753795 7.5372047,76.753795 7.5372047,76.753795 C 7.1332047,76.753795 6.7682047,76.996795 6.6132047,77.370795 C 6.4582047,77.744795 6.5422047,78.174795 6.8282047,78.461795 z "
   id="path1958"
   style="fill:url(#XMLID_5_)" />
	<linearGradient
   id="XMLID_6_"
   gradientUnits="userSpaceOnUse"
   x1="64.777"
   y1="55.413372"
   x2="81.768"
   y2="130.6001"
   gradientTransform="matrix(0,-1,1,0,1.803,127.751)">
		<stop
   offset="0"
   style="stop-color:#ED7C00"
   id="stop1961" />
		<stop
   offset="1"
   style="stop-color:#F89000"
   id="stop1963" />
	</linearGradient>
	<path
   d="M 34.129985,46.468015 C 34.129985,51.043015 32.872,77.754 32.872,77.754 L 7.535,77.754 L 49.762,119.982 L 91.988,77.754 L 66.654,77.754 C 66.654,77.754 66.654,60.105 66.654,51.662 C 66.654,41.626 75.567,19.582 96.209,19.582 C 116.854,19.582 122.019,31.583 122.019,31.583 C 122.019,31.583 113.669,5.966 76.603,5.966 C 39.537,5.966 34.129985,39.783015 34.129985,46.468015 z "
   id="path1965"
   style="fill:url(#XMLID_6_)"
   inkscape:transform-center-y="-19.184275"
   inkscape:transform-center-x="5.6609337"
   sodipodi:nodetypes="ccccccsscsc" />
	<linearGradient
   id="XMLID_7_"
   gradientUnits="userSpaceOnUse"
   x1="46.8535"
   y1="23.5815"
   x2="92.8537"
   y2="120.0819"
   gradientTransform="matrix(0,-1,1,0,-19.06,148.614)">
		<stop
   offset="0"
   style="stop-color:#ED7C00"
   id="stop1968" />
		<stop
   offset="1"
   style="stop-color:#FFA000"
   id="stop1970" />
	</linearGradient>
	
	<linearGradient
   id="XMLID_8_"
   gradientUnits="userSpaceOnUse"
   x1="8.522"
   y1="28.0591"
   x2="107.11935"
   y2="49.099743"
   gradientTransform="matrix(0,-1,1,0,1.359287,127.8671)">
		<stop
   offset="0"
   style="stop-color:#FABD8C"
   id="stop1975" />
		<stop
   offset="1"
   style="stop-color:#F8A039"
   id="stop1977" />
	</linearGradient>
	<path
   d="M 62.631191,72.273113 C 56.786191,46.747113 49.785287,14.27212 49.785287,14.27212 C 35.606287,25.06512 32.428287,43.22512 32.428287,47.84212 C 32.428287,52.41712 32.428287,77.87012 32.428287,77.87012 L 7.0912875,77.87012 L 49.318287,120.09812 L 69.299739,99.489678 C 69.299739,99.489678 71.306658,103.14556 62.631191,72.273113 z "
   id="path1979"
   style="fill:url(#XMLID_8_)"
   sodipodi:nodetypes="ccsccccc" />
</svg>