<?xml version="1.0" encoding="UTF-8" standalone="no"?>
<!DOCTYPE svg PUBLIC "-//W3C//DTD SVG 20010904//EN"
"http://www.w3.org/TR/2001/REC-SVG-20010904/DTD/svg10.dtd">
<!-- Created with Sodipodi ("http://www.sodipodi.com/") -->
<svg
   width="48pt"
   height="48pt"
   viewBox="0 0 256 256"
   overflow="visible"
   enable-background="new 0 0 256 256"
   xml:space="preserve"
   xmlns="http://www.w3.org/2000/svg"
   xmlns:xap="http://ns.adobe.com/xap/1.0/"
   xmlns:xapGImg="http://ns.adobe.com/xap/1.0/g/img/"
   xmlns:ns="http://ns.adobe.com/SaveForWeb/1.0/"
   xmlns:rdf="http://www.w3.org/1999/02/22-rdf-syntax-ns#"
   xmlns:xml="http://www.w3.org/XML/1998/namespace"
   xmlns:xapMM="http://ns.adobe.com/xap/1.0/mm/"
   xmlns:pdf="http://ns.adobe.com/pdf/1.3/"
   xmlns:dc="http://purl.org/dc/elements/1.1/"
   xmlns:a="http://ns.adobe.com/AdobeSVGViewerExtensions/3.0/"
   xmlns:x="adobe:ns:meta/"
   xmlns:sodipodi="http://sodipodi.sourceforge.net/DTD/sodipodi-0.dtd"
   xmlns:xlink="http://www.w3.org/1999/xlink"
   id="svg548"
   sodipodi:version="0.32"
   sodipodi:docname="/home/david/gnome-mime-application-pdf.svg"
   sodipodi:docbase="/home/david">
  <defs
     id="defs618" />
  <sodipodi:namedview
     id="base" />
  <metadata
     id="metadata549">
    <ns:sfw>
      <ns:slices>
        <ns:slice
           x="0"
           y="0"
           width="256"
           height="256"
           sliceID="124081036" />
      </ns:slices>
      <ns:sliceSourceBounds
         x="0"
         y="0"
         width="256"
         height="256"
         bottomLeftOrigin="true" />
      <ns:optimizationSettings>
        <ns:targetSettings
           fileFormat="PNG24Format"
           targetSettingsID="0">
          <ns:PNG24Format
             transparency="true"
             includeCaption="false"
             interlaced="false"
             noMatteColor="false"
             matteColor="#FFFFFF"
             filtered="false" />
        </ns:targetSettings>
      </ns:optimizationSettings>
    </ns:sfw>
    <xpacket>begin='﻿' id='W5M0MpCehiHzreSzNTczkc9d'    </xpacket>
    <x:xmpmeta
       x:xmptk="XMP toolkit 3.0-29, framework 1.6">
      <rdf:RDF>
        <rdf:Description
           rdf:about="uuid:94c1dfe9-2a61-46f4-957b-513b62ef1262">
          <pdf:Producer>
Adobe PDF library 5.00</pdf:Producer>
        </rdf:Description>
        <rdf:Description
           rdf:about="uuid:94c1dfe9-2a61-46f4-957b-513b62ef1262" />
        <rdf:Description
           rdf:about="uuid:94c1dfe9-2a61-46f4-957b-513b62ef1262" />
        <rdf:Description
           rdf:about="uuid:94c1dfe9-2a61-46f4-957b-513b62ef1262">
          <xap:CreateDate>
2004-01-26T11:58:28+02:00</xap:CreateDate>
          <xap:ModifyDate>
2004-03-28T20:32:09Z</xap:ModifyDate>
          <xap:CreatorTool>
Adobe Illustrator 10.0</xap:CreatorTool>
          <xap:MetadataDate>
2004-02-16T21:04:53+01:00</xap:MetadataDate>
          <xap:Thumbnails>
            <rdf:Alt>
              <rdf:li
                 rdf:parseType="Resource">
                <xapGImg:format>
JPEG</xapGImg:format>
                <xapGImg:width>
256</xapGImg:width>
                <xapGImg:height>
256</xapGImg:height>
                <xapGImg:image>
/9j/4AAQSkZJRgABAgEASABIAAD/7QAsUGhvdG9zaG9wIDMuMAA4QklNA+0AAAAAABAASAAAAAEA
AQBIAAAAAQAB/+4ADkFkb2JlAGTAAAAAAf/bAIQABgQEBAUEBgUFBgkGBQYJCwgGBggLDAoKCwoK
DBAMDAwMDAwQDA4PEA8ODBMTFBQTExwbGxscHx8fHx8fHx8fHwEHBwcNDA0YEBAYGhURFRofHx8f
Hx8fHx8fHx8fHx8fHx8fHx8fHx8fHx8fHx8fHx8fHx8fHx8fHx8fHx8fHx8f/8AAEQgBAAEAAwER
AAIRAQMRAf/EAaIAAAAHAQEBAQEAAAAAAAAAAAQFAwIGAQAHCAkKCwEAAgIDAQEBAQEAAAAAAAAA
AQACAwQFBgcICQoLEAACAQMDAgQCBgcDBAIGAnMBAgMRBAAFIRIxQVEGE2EicYEUMpGhBxWxQiPB
UtHhMxZi8CRygvElQzRTkqKyY3PCNUQnk6OzNhdUZHTD0uIIJoMJChgZhJRFRqS0VtNVKBry4/PE
1OT0ZXWFlaW1xdXl9WZ2hpamtsbW5vY3R1dnd4eXp7fH1+f3OEhYaHiImKi4yNjo+Ck5SVlpeYmZ
qbnJ2en5KjpKWmp6ipqqusra6voRAAICAQIDBQUEBQYECAMDbQEAAhEDBCESMUEFURNhIgZxgZEy
obHwFMHR4SNCFVJicvEzJDRDghaSUyWiY7LCB3PSNeJEgxdUkwgJChgZJjZFGidkdFU38qOzwygp
0+PzhJSktMTU5PRldYWVpbXF1eX1RlZmdoaWprbG1ub2R1dnd4eXp7fH1+f3OEhYaHiImKi4yNjo
+DlJWWl5iZmpucnZ6fkqOkpaanqKmqq6ytrq+v/aAAwDAQACEQMRAD8A9U4q7FXYq7FXYq7FXYq7
FXYq7FXYq7FXYq7FXYq7FXYq7FXYq7FXYq7FXYq7FXYq7FXYq7FXYq7FXYq7FXYq7FXYqlvmDzFo
3l7TJdT1e5W1tItuTbszHoiKN2Y+AxV4j5g/5ydvTcMnl/SYlgU0Se/LOzDxMcTIF/4M4qk//QzP
nv8A5YNL/wCRVx/2UYq7/oZnz3/ywaX/AMirj/soxV3/AEMz57/5YNL/AORVx/2UYq7/AKGZ89/8
sGl/8irj/soxV3/QzPnv/lg0v/kVcf8AZRirv+hmfPf/ACwaX/yKuP8AsoxV3/QzPnv/AJYNL/5F
XH/ZRirv+hmfPf8AywaX/wAirj/soxV3/QzPnv8A5YNL/wCRVx/2UYq7/oZnz3/ywaX/AMirj/so
xV3/AEMz57/5YNL/AORVx/2UYq7/AKGZ89/8sGl/8irj/soxV3/QzPnv/lg0v/kVcf8AZRirv+hm
fPf/ACwaX/yKuP8AsoxV3/QzPnv/AJYNL/5FXH/ZRirv+hmfPf8AywaX/wAirj/soxV3/QzPnv8A
5YNL/wCRVx/2UYq7/oZnz3/ywaX/AMirj/soxV3/AEMz57/5YNL/AORVx/2UYq7/AKGZ89/8sGl/
8irj/soxV3/QzPnv/lg0v/kVcf8AZRirv+hmfPf/ACwaX/yKuP8AsoxVFad/zk75oS4B1HSbG4t+
6W/qwP8A8E7zj/hcVeyeRfzJ8tec7Vn0yUx3kQBuLCaizJ25AAkMlf2l+mmKsqxV2KuxV2KuxV2K
vm/XDqf5ufmk+j287Q+XtJLqJF3VIY2CSzAHYvM9AvtTwOKvePLfk/y35bs0tdHsYrZVFGlCgyuf
GSQ/Ex+ZxVOK4q6oxVrkMVdyGKu5jFWvUGKu9RffFWvVX3xV3rL74q71l8DirXrp4HFXfWE8DirX
1hPA4q76yngcVd9Zj8D+GKtfWo/A/hirvrcfgfw/rirvrcfgfw/rirX1yLwb8P64q765F4N+H9cV
d9di8G/D+uKtfXovBvw/riqVa/5X8r+abR7TV7GO55CiyMoWZP8AKjkHxKR7HFXzB5n0XXfys8/R
NZXBJgIudOujsJYGJUpIB8ijj+oxV9VeWtfs/MGhWWsWf9xexLKErUoxHxI3up2OKplirsVdirsV
Q+oMy2Fyy/aWJyvzCnFXhP8AziwqvL5nmYcpQLIBz1oxuC2/uVGKvficVaxVrFWicVaJxVrFWsVa
JxVonFWsVaxVrFWicVaxVrFWicVaJxVrFWsVaJxVonFWsVaxVdCSJkp/MP14q8V/5ypRBJ5ZkCjm
wvVZu5CmAgfRyOKsn/5x3vJX8lwWzElQZmSvbjMR/wAbYq9XxV2KuxV2KofUv+Oddf8AGGT/AIic
VeE/84pn/lKP+jD/ALGcVe+nFWsVaJxVonFWsVaxVonFWicVaxVrFWsVaJxVrFWsVaJxVonFWsVa
xVonFWicVaxVrFWicVXQ/wB9H/rD9eKvFv8AnKw/8ov/ANH/AP2LYqn/APzjn/yisHyuP+T4xV6/
irsVdirsVQ+pf8c66/4wyf8AETirwf8A5xRNf8U/9GH/AGM4q9+PXFWicVaJxVrFWsVaJxVonFWs
VaxVrFWicVaxVrFWicVSjUvNvlnTJTDfanbwTD7UTSAuPmoqw+nKMmpxwNSkA52n7M1OYXDHIjvr
b5q2la7o2rRtJpt5Fdqn2/SYMV/1h1H05LHmhP6SC1anR5sBrJEx96Oy1xmicVaJxVrFWsVaJxVo
nFV0P99H/rD9eKvFf+crjT/C3/R//wBi2Ksg/wCccv8AlFLf5XH/ACfGKvYMVdirsVdiqH1L/jnX
X/GGT/iJxV4N/wA4nmv+Kf8Aow/7GcVe/HrirROKtYq1irROKtE4q1irWKtYq0TirWKtYq0Tiryj
z955nutXk0LT7trSwtDw1G6hPGWST9qJG/ZC9GPj7ddHrdYTPgiaiOZ/Q9v2J2NGGIZ8keKcvpB5
Afzj+hjNj5g0Ox1AWlrZQrD6ZLzMod2kqCAXarHavfMKGaEZUAHd5tHmyQ4pSN3y6V7lS+8yQWmo
Wms6WqW9/byBZDGoVZYm2ZJFWnLJ+OIzjOOxv7Gj8hLJhninvExNX0kORD2nSdSj1HT4btBx9RQW
TrxbuM6Z80RZOKtYq1irROKtE4q1iq6D+/j/ANYfrxV4r/zlgaf4W/6P/wDsWxVkH/OOH/KJ2/yu
P+T4xV7DirsVdirsVQ+pf8c66/4wyf8AETirwT/nEw/8pV/0Yf8AYzir39jucVaxVrFWicVaJxVr
FWsVaxVonFWsVaxVonFUFrWofo7R76/2JtLeWYA9zGhYD6aZXlnwQMu4ORpMPi5YQ/nSA+ZfKzzS
ySNI7lnclnYncsTUk5xRJL7WIgChyCIdKabFJ+000gr3oFXMiUawg/0j9wdfjyE6ycegxw/3U1CM
s0iCpNWG305RDchzc1CBPkX0b5EJ/QYH+V/AZ3D4eyLFWsVaJxVonFWsVaxVdAf38f8ArL+vFXin
/OWZ/wCUV/6P/wDsWxVkP/ON/wDyiVv8rj/k/ir2LFXYq7FXYqh9S/4511/xhk/4icVeBf8AOJR/
5Sr/AKMP+xnFX0A3U4q1irROKtE4q1irWKtYq0TirWKtYq0TirROKse/MAuPJesFPtfVnB77HZvw
zF1v9zL3O07Er85iv+cHzTnHvsCq8oa1hiHVGdj/ALLj/wA05bKdwEe4n7acXHgIzTn/ADhEfLi/
WqaZEZdQt0/ywT8l3P6ss0cOLLEebR2xm8LSZJf0SPnsPvfRvk+Aw6LGD1J/UoH6xnYvjid4q0Ti
rROKtYq1irROKr4P7+P/AFl/XirxL/nLU/8AKK/9H/8A2LYqyL/nG3/lEbb5XP8AyfxV7HirsVdi
rsVQ+pf8c66/4wyf8ROKvAf+cSDX/Ff/AG7/APsZxV9At9o/PFVpOKtE4q1irWKtYq0TirWKtYq0
TirROKtYqlPmu2N15Z1a3G7SWc6r/remeP45RqY3jkP6Jc3s3JwanHLunH73y/nGPs7sVT7ybZfW
dWDEVVKA/wCy6/8ACg5t+x8V5DL+aPveS9r9TwaeOPrOX2R/bT6J0yH0dPgjOxCgke7bn9edG+cI
knFWicVaxVrFWicVaJxVfB/fx/66/rxV4l/zluaf4U/7eH/YtirI/wDnGv8A5Q+2+Vz/AMn8Vex4
q7FXYq7FUPqX/HOuv+MMn/ETir5//wCcRjX/ABX/ANu//sZxV9BN9o/PFVpOKtYq1irWKtE4q1ir
WKtE4q0TirWKtYqtdVZSrCqsKEeIOKQa3fKuqWTWGp3di/2rWaSE1/4rYr/DOIyQ4ZGPcX23TZhl
xxmP4og/MIbINz0n8rtH9WSN2X+8bk3yP/Nq/jnU9l4eDED1lu+Xe1Gr8XVmI5Yxw/Hr9u3wez5s
XnGicVaxVrFWicVaJxVrFV9v/vRF/rr+vFXiP/OXJp/hT/t4f9i2Ksk/5xq/5Q62+Vz/ANRGKvZM
VdirsVdiqH1L/jnXX/GGT/iJxV8+/wDOIZ/5Sz/t3/8AYzir6Dc/Efniq3FWsVaxVonFWsVaxVon
FWicVaxVrFWicVaJxV8+fmxpv1HztdsBSO9RLpP9kOL/APDo2cr2nj4cx8931T2Z1PiaOI6wuP6v
sIYjEnqTRx1p6jqlfDkaZhY4cUhHvLutRl8PHKdXwxJ+Qe/fl7pi29l6oWgChV+mn6lAztoxAFDk
HxTJkM5GUuZNll5OFg1irWKtE4q0TirWKtYqvtz/AKRF/rr+vFXiH/OXh/5RP/t4f9i2Ksl/5xo/
5Q21+Vz/ANRGKvZcVdirsVdiqH1L/jnXX/GGT/iJxV8+f84gn/lLP+3f/wBjOKvoN/tH5nFVuKtY
q0TirWKtYq0TirROKtYq1irROKtE4q1ir51/MzXhrPnG8eNuVtY0s4COh9In1CPnIW38M5TtLNx5
T3DZ9W9nNH4Gkjf1T9R+PL7KYrIWCFl2Zdwfcb5gxNF3k4gggvoj8uNTS/8ALUEi05AAsB2qNv1Z
2uKfHES7w+K6vAcOWWM/wyIZRljjtYq0TirROKtYq1irROKr7f8A3oi/11/XirxD/nL4/wDKJ/8A
bw/7FsVZL/zjP/yhlr8rn/qIxV7NirsVdirsVQ+pf8c66/4wyf8AETir56/5w/Nf8W/9u/8A7GsV
fQj/AG2+ZxVbirROKtYq1irROKtE4q1irWKtE4q0TirWKsf89eYl8v8Ala+1IEC4VPTtB4zyfDHt
3oTyPsMo1OXw8Zk7DsvR/mNRHH0vf3Dm+aC3owF3NSBVie7H+pzjvqL7EPSF6MHRWHRgD9+RIpkD
b1H8jdYoLrS3beNjwX2PxA/rGdR2Xl4sVdz5j7VaXw9TxjlMfaNv1PXs2TzLROKtE4q1irWKtE4q
1iq+2/3oi/11/Xirw/8A5zANP8Jf9vD/ALFcVZN/zjL/AMoXafK5/wCojFXs+KuxV2KuxVD6l/xz
rr/jDJ/xE4q+eP8AnD01/wAW/wDbu/7GsVfQr/bb5nFVpOKtYq1irROKtE4q1irWKtE4q0TirWKt
Yq8R/O3zH9d1210CBq2+mqLm8A6GeQfu1P8Aqoa/7LND2vn3EA9/7I6Hhgcx5y2HuH6z9zz2ys/0
jq1tYU5R19a4A/kU7D/ZHbMLs/T+Jk35O77e1/5bTkg+o7D3n9XNTFtLZ3N1p8v97ZTPCfcA/C3y
IyjVYuCZDnaDUDNhjMdRadeR9XOk+cbSWtIrr923hyXda/Rtmf2TlqfD3uh9q9J4mn4xzgb+HI/o
PwfSaurorqaqwBB9jnRvmrZOKtYq1irROKtYq1iq+2/3pi/11/Xirw7/AJzCNP8ACX/bx/7FcVZR
/wA4x/8AKFWnyuf+ojFXs+KuxV2KuxVD6l/xzrr/AIwyf8ROKvnf/nDo/wDKXf8Abu/7GsVfQsh+
NvmcVW4q1irROKtE4q1irWKtE4q0TirWKtYql3mDWrXRNFvdWujSCziaQitORGyoPdmoo+eQyTEI
mR6N+l08s2SOOPORfLs15cXU1zqd81bq8ke5uW6AFzyoPADOOzZDOZL7LpcEcOMQHKIZh+VOhS3U
p1CRf3l44aMEdIxtH/Fs6Ts7BwY76l849p9f42fgH0w+/wDZy+a7849DTSfONpexLxttXtgjH/i+
1AU1+cZXMDtfDvxO+9kdXxYjjP8ACfsO/wB9sHvDIkQni2mtmWaM+6GuanBMxmC9VqsIyY5RPIh9
J+Rdbj1jyzZ3aNUlAD49KiudnCQkAR1fF8+E4pygecTSf5JqaxVonFWsVaxVrFV9sf8ASYv9df14
q8O/5zFP/KI/9vH/ALFcVZR/zjF/yhNp8rr/AKiMVe0Yq7FXYq7FUPqX/HOuv+MMn/ETir51/wCc
OD/yl/8A27v+xrFX0NJ9tvmcVW4q0TirROKtYq1irROKtE4q1irWKtE4q8Y/PLzN9avbTyvbPWKD
jd6nQ9W/3TEf+JkfLNL2tqKHAHuPZLs67zyHlH9J/R83l8lvJf3lvpcRINw1Z2H7MK7sfp6DNZoc
HiTD1Ha+uGmwSn16e/o+hvIWiJZ2ay8AgVQiL4Gg6f6q7Z1gFPkMpGRJPMoD86tAfVvJFxc268r3
SHXUINtyIq+qvy9MsaewzG1mLjxl3HYGr8HUx7pbfq+14XDKk8KSrukihh8iM5AijT6yDYt6L+RW
vfVrq88vzNsp9S3B/kbcfca503ZmbihXc+be1Wi8PMMg5T+8fs+57RmzeVaJxVrFWsVaxVonFVS2
/wB6Yv8AXX9eKvDP+cxz/wAoh/28f+xXFWU/84wf8oPZ/K6/6icVe04q7FXYq7FUPqX/ABzrr/jD
J/xE4q+c/wDnDY1/xf8A9u7/ALGsVfREn943zOKrCcVaJxVrFWsVaJxVonFWsVaxVonFUr8y6/aa
Bod3q10f3VrGWCVoXc7Ig92YgZXlyCETI9HJ0ellnyxxx5yP9pfMVxeXN1cXWp378ru7ka4uXPYs
a0Hso2Azj82Q5J2+x6XBHDjEI8ohlX5X+XZby5OpyofVuiPRU9ogfgH+yPxH2zo+ztPwQvqXzr2n
7R8bN4YPph9/7P1vfraBLe3jgT7KClfE9z9ObF5hdIiOjRuoZHBVlO4IOxBxSDT5c1jQ5PLnmTU/
L7giK1lMtix35WsvxR79+NaH3zk+0MHBkfXOxdaNRp4y69ff1U9O1OXRtdsdYiNBA4S4p/vtj1+g
74ez8/h5PJHbmg/M6eUR9XMe8fivi+nrC9ivbKG6iIMcyBgR751b5GQr4q1irWKtE4q1iqpa/wC9
MX+uv68VeF/85kmn+EP+3j/2K4qyr/nF/wD5Qaz+V1/1E4q9qxV2KuxV2KofUv8AjnXX/GGT/iJx
V85f84aGv+MP+3d/2NYq+iJP7xvmf14qsJxVrFWsVaJxVonFWsVaxVonFWicVeHfnL5p/Smsx6Db
PWy0xud4R0e5I2X39MfiTnP9q6qzwDo+heynZnBDx5D1T5f1f2/dTALawfVNRi09K+lUSXRH8gP2
fmxzE0Gm8Sfk7ntztEaXAT/Edh7/AMbvoPyRoaWdosxQLQcYwBtXoSPl9kZ1YD5KSSbPNlJOKGsV
eVfnp5ZaawtfNNqlbnS/3N6B1a0kbr/zzc1+knNb2lp+OF9Q9V7LdoeFl8I/TPl7/wBo+4PJ3WOa
IqfiRx+BzmAaL6SRYetfkn5mafTpdBunrc2J/ck9Wj7fhnVdn6jxMddQ+W+0nZ/gajiH0z3+PX9f
xen5nvPNYq0TirWKtYqqWv8AvVD/AK6/rxV4X/zmWaf4P/7eP/YrirKv+cXf+UFs/ldf9ROKva8V
dirsVdiqH1L/AI511/xhk/4icVfOH/OGJr/jD/t2/wDY1ir6JlP7xvmf14qsxVrFWicVaJxVrFWs
VaJxVonFWN+ffNKeW/L014pBvZf3NjGe8rDY08EHxHMXWagYoE9ejtex+zjq84h/CN5e79vJ84Sy
OqvLIxkmkYs7HdndjUknuSc5LeUn1sCOONDYB6N+WvlKQFZJV/0iZuczeB8PkgP351ei0/hQrqXy
ntztL81nJH0R2j+v4/dT2aKJIYlijFEQAKPYZmOlWz3FvbxmSeVIox1d2Cj7zgJAZRiZGgLSG+/M
PyPZV+sa5Z1HVY5VlYf7GPmcqlqMY5yDm4+y9TPljl8q+9JL381vId/az2cRudVgnRopore0nYOr
Diy/Eqda0ymWsxkVz+Dm4uw9XCQl6YEb7yDwyNEhubm1iWYW0MjLbNcIY5DHU8Q69mA65zGoAEjT
6fpJSOMcXOunL4I/RtWu9F1m21W0HOSI8ZIq0DoexyzR6k4p30cTtfs2OrwmB2PQ9xeuW/5p38o5
N5dnC024XETGvyIU5ux2lf8AD9rxM/ZkD/Kj/SlHRfmOP+PnQdSjHdoo1mUfMqwyY7RHWMvvaJez
kv4cuM+8kfoTPTfPHljUJRBFeLFck0+r3AaF6nsBIFqfll2LW4pmgd/PZwdT2JqsI4pQuPfH1D7P
0p5mW6prFVS1P+lQ/wCuv6xirwr/AJzONP8AB/8A28v+xXFWV/8AOLn/ACgll8rr/qJxV7ZirsVd
irsVQ+pf8c66/wCMMn/ETir5v/5wvNf8Y/8Abt/7GsVfRMv94/zP68VWYq0TirROKtYq1irROKtE
4qtd1RS7kKqglmJoAB1JOJKQCTQfPH5heam8x6+0sTH9H2lYbFOxFfikp4uR91M5PX6rxZ7fSOT6
x2F2WNJgAP8AeS3l+r4ffaS6XZ3ZvFuDYyzpFvCKBELfzF3oNu2OjIhLiIvuT2xGWbF4cJiHF9R5
mu4Ad7OrLzb5msoTHajTdLQiheZ3uZlA7Dhxj69c2cu0Z/0Y/a81i9ncA5+JkPkBEfrQF/5qmmB/
SvnC9kHeOwEVl9FUDMcx5awnnI/DZ2OPseEfpwwH9a5fekj6t5EeXmNMuNXuh/u24knnYn3BYLv8
sgMnEdokuScE8Y9WSOOPlQRcHmS8i/45PlaC1p0cwwwN9JK1/HLo48x5RpwMmfRx+vNxfEy+60S+
s/mTeCixxwr0AJZqD/YA5Z+U1B5mnG/lTs6HISl8P10lmo+XvOd2j3Nz6U0qLXiqtyNOwLAHKsvZ
eQiyQS5Wm9p9NGQjGMoxJ5nkPtY/HIHQMO/UeGaUinswbCO0671NrpLeK4CF9ovUrQnstRmRp4mc
uEGj5uu7QnHDjOQwMwOfDzrvZIL7zZpq854S8a/adK0AHzzOyafUYxdWPJ0WDtDQak8IPDI9JCvt
5favfzhY6jD6GpwLMlKAyDdf9Vuq/QcxzqRIVIOxHZk8RvGaZb+W3muWcy6RcytPFCxFjcuavw7I
x70rsc3PZmYygQd+E7PG+0+kjizRlEcJnGyB39/xegk5snmlS1/3qh/11/WMVeFf85oGn+Dv+3l/
2K4qyz/nFr/lA7L5XX/UScVe2Yq7FXYq7FUPqX/HOuv+MMn/ABE4q+bf+cLTX/GP/bt/7GsVfRUv
96/+sf14qsJxVonFWsVaxVRuru1tYWnuZkghT7csrBFHzZiBkZSERZNBnjxymeGIMj3Ddi9z+ZGj
tI0OkW9zrM6mjfVIz6Sn/KlfioHuK5hS7QhygDM+X63d4vZ7NV5THFH+kd/kN0qvPMXne5VmZrLQ
bfqSx+t3C/fSLMeeqzH+bAfM/qdhh7M0UP5+aX+kj/xTDde1bSPRkN/q91rlzT4bdpituW/1IqBR
4/FmuzZY16pGZ9+32PRaLSZAR4eOGGPfw+r5lh2npfyzH6ktJBuWFBSvuen0Zi6fDkyGoB2uv1mD
TwBzGgeXM38AnEXlXzJdkGSZlB/1j/xLiM2UOych+qVfa81m9rdPD+7xmXvofrTWx/Ku6uKNMZpQ
eu5C/wDCj/jbMzH2TjHMkupz+1upl9AjEfP9n2Mj078obOOheCNfd6Mfx9Q5mQ0mKPKIdPm7X1WT
6skvht91Mitfy/0yEAMQQP2VG34mn4ZeBTrpSJNlNIPK+jwfZir9NP8AiPHChFppenJ0t0+kcv11
xVWWCBfsxqo9gBiryL80fIMltcTeYNJjrbSkvqFug+w56yqB+y37Xgd+nTQ9paH/ACkeXX9b33s1
24CBgynf+E9/l7+75e/mnq9jmkp7dm+j/mlfWmky2F7bR30ixlLS6kpzQ0ovOoPMD6Dm0w9qZIx4
Tv3H8c3ldZ7KYMuUTgeAX6o9D7u5h0YMjBIwWZjQAeOayMDI0OZemy5I44mUjURzL1D8utCkimik
I3U83b5EEn8Auddo9P4OMR69XyPtntH83qDP+HlH3ft5vT8ynVKlr/vVD/rr+sYq8J/5zSNP8Hf9
vL/sVxVlv/OLH/KBWPyuv+ok4q9txV2KuxV2KofUv+Oddf8AGGT/AIicVfNf/OFZ/wCUy/7dv/Y3
ir6LlP71/wDWP68VWE4q1iqA1fW9K0i1N1qVyltD0Bc7sfBVFWY+wGV5c0MYuRoOTpdHl1EuHHEy
P459zErvzj5i1QEaJaLptif+lnqA+MjxigG/yLbHNdPWZJ/QOEd5/QHoMPY2DD/fy8Sf8yHL4y/U
xLUNQ8sxXXqajc3HmfVF6K55xIf8mNT6SjxG+YUjAy3vLP8AHTk7yEMsIekQ02L5H5ncrW1zzZqC
CGxhj0y1XZUiUOyj7hGMyo6bPPugPmf1Opy9o6LCbHFnn3/TH580k8x2B0+BZdTuJLu+mFYIZXZt
q0LUFFCjKdXhxYY+q5zPK/vc3snWarW5KgI4cMfqMRv7rPXz6MWt4JbiZYolq7Hbw+eafFilkkIx
5l7HVarHp8ZyTNRj+Pm9U8i+UKcCRsPidyP+G+n9kZ1ul00cMOEfF8j7U7Snq8pnLl0HcPxzemQ2
NnAB6UKKR+1QV+/rmS65WxVonFWsVaxVrFWicVWsAQQRUHYg9KYq8083flHa3Ur3mjUgZqs9r+xX
/I8Plmr1HZcJm4nhP2PVdn+1efCBHIPEj8pfPr8fmwc/l7q0U3pzKUI7Hr/DMMdjzveQdxP2zxV6
ccr94/b9zKvLf5fyBg3pk/zOf+aug+jNpptFDDy3l3vK9p9t59ZtI1D+aOXx73pWmabBYW4jjFWI
HJuladh7DMx06LxVUtP964f+Mi/rGKvCP+c1D/yhv/by/wCxTFWXf84r/wDKA2Pyuv8AqKOKvbsV
dirsVdiqH1L/AI511/xhk/4icVfNP/OFBr/jL/t2/wDY3ir6MmP71/8AWP68VWYqxTzn50OjtHp2
notxrNyvKON/7uGPp6spHbwHfMHV6zw/THeZ+zzLvOyOyPzF5Mh4cMfmT3B51dapaWl0L2/kfWdd
l+xJJvxPhFH9mNR8s1Bn6rPryH8bPXRxfuyI1hwR5/tPMlatn5j8wPW9lZLdjtaxEhPkzDdvkMz8
eglPfKf80fpLodT27iw+nSxs/wA+X+9H6/kzHQvy6hhjUyoIl68SNz/sf+ajmyx4owFRFPNajVZM
0uLJIyPmv81eZPLnlG29GKNLvVyv7i2bfjXo8lNlX5bn8cxdZro4RXOXd+t23Y/YeTWSs+nF1l+g
ef3PF9Q1DU9a1N7q6dri8uG3P6lUdAoGcyTPNPvkX0uEMOjw0KhjgPx7yftZ15K8nO7KzIGkbdmP
Sn/NI/HOm0WjGGP9I83zLtvtmWsybbYo8h+k+f3PXLKyhs7cQxjpuzd2PicznSK+KtE4q1irWKtY
q0TirWKtYq1iq1gD1FcVdirWKtYqqWh/0uH/AIyL+sYq8H/5zXNP8G/9vL/sUxVl/wDzir/5L+x+
V3/1FHFXt+KuxV2KuxVD6l/xzrr/AIwyf8ROKvmj/nCY1/xn/wBu3/sbxV9Gzf3r/wCsf14qp4q+
d/N+r30Xm3WzKCJ2unQMevpRnjEB7cAM5LV5ZDLO+d/2PrXZWmgdJir6eAfM/V9qT6brDWuord3E
frofhkStDxrXY4NJqzinxVbPtbskavB4YPCQbHv83q2lfmb5Ds7RXUXCz8RyVofj6dBQlQPpzdjt
bDXX5PEH2T1glXp99/gpD5l/Oe/u0e30OA2UTbG6lo01P8lRVU/HMDUdryltAV59Xe9neyOOBEs5
4z/NH0/rP2PPoYL3Ublmq00rnlLK5JNT1LMc12HBPNKhuXo9ZrsGjx3MiIHID7gHofk/yO5dSU5O
aF2YU29/5V9u+dPpNFHCO+Xe+Zdr9s5NZLf04xyj+k95eqadp1vYwCOIbmnN+5p/DMx0yKxVonFW
sVaxVrFWicVaxVrFWsVaJxVrFWsVaxVonFVW0/3rg/4yL/xIYq8G/wCc2TT/AAZ/28v+xTFWX/8A
OKn/AJL6w+V3/wBRRxV7hirsVdirsVQ+pf8AHOuv+MMn/ETir5m/5wkP/KZ/9uz/ALG8VfR0398/
+sf14qpk4qw7z1+Xlh5kT61ERbarGtFnH2ZFHRZB3p2OYOr0EM2/KXe7zsrt7No/SPVj/mn9B6PI
NT8h+ZNPlMctvyp0K9CPHfbNNk7JzDlReywe1mkmPVxQPmL+60DH5b1h24+hxPuQf1VyEey856V8
Q3ZPajQxG0jL3Rl+kBOdM8hXszr64Jr+wAVH4/EfoGZ+HscDeZvyDotb7YyIrBGvOX6uX2l6N5e8
gR2yo0qCJV3Apv8AQvY+5zcY8cYCoig8fqNTkzT48kjKXmzS2toLaIRwqFUfeT4k5NoVMVaJxVrF
WsVaxVonFWsVaxVrFWicVaxVrFWsVaJxVrFVWz/3rg/4yL/xIYq8F/5zbP8Ayhn/AG8/+xTFWYf8
4pf+S9sPld/9RRxV7jirsVdirsVQ+pf8c66/4wyf8ROKvmX/AJwiP/Kaf9uz/sbxV9HTn98/+sf1
4qpk4q1iqySOOReMih18GAI/HFUKdK00tX6un3UH3YqrRW9vCKRRrH/qgD9WKr8VaxVonFWsVaxV
rFWicVaxVrFWsVaJxVrFWsVaxVonFWsVaxVVs/8AeyD/AIyL/wASGKvBf+c3T/yhf/bz/wCxTFWY
/wDOKH/kvLD5Xf8A1FHFXuOKuxV2KuxVD6l/xzrr/jDJ/wAROKvmP/nB81/xp/27P+xvFX0fOf30
n+sf14qp4q1irROKtE4q1irWKtE4q1irWKtYq0TirWKtYq1irROKtYq1irWKtE4q1irWKtYqq2Z/
0yD/AIyJ/wASGKvBP+c4DT/Bf/bz/wCxTFWZf84n/wDku9P+V3/1FHFXuWKuxV2KuxVD6l/xzrr/
AIwyf8ROKvmD/nCCRUn86W7njORpzCM7NRDdBtvYsK4q+kbiomkr/Mf14qp4q0TirROKtYq1irRO
KtYq1irWKtE4q1irWKtYq0TirWKtYq1irROKtYq1irWKtE4qrWIJvIABU81P3GuKvAP+c4ZozL5M
iDAyIupOydwrG1Cn6eJxVm3/ADieGH5dafUEHjdnfwN0SMVe5Yq7FXYq7FVskayRtG32XBVvkRTF
XxjrN7rf5Efnjca1FbNP5e1ZpDLAtFWW2mcPLGldg8MlGT2p2JxV9U+U/PHknzvp8d/5f1SG8DrV
4UcLcRnussJ+NCPcfLbFU8/R0X8zfhirv0bF/M34Yq1+jIv52/DFXfoyL+dvwxV36Lh/nb8MVa/R
UP8AO34Yq79FQ/zt+H9MVa/RMP8AO34Yq79Ew/zt+GKu/REH87fh/TFWv0PB/O34f0xV36Hg/nb8
P6Yq79DQfzt+H9MVa/QsH87fh/TFXfoWD/fj/h/TFWv0Jb/78f8AD+mKu/Qdv/vx/wAP6Yq1+g7f
/fj/AIf0xV36Ct/9+P8Ah/TFXfoK3/34/wCH9MVa/QNv/vx/w/pirv0Bbf78f8P6Yqk3mfzh5E8i
WEuoa9qcNpxUlIpHDXEngsUK/G5PsPntir4i/MXztr35wfmQtxa27Rxy8bTSbImvo2yEtykI2qas
7n6OgGKvsf8AJ7y5HoWhW1jAP3NpbpEGIoWJp8R924VPzxV6FirsVdirsVdirE/zG/Lfy/560OTT
NViUvSsE9KsjjoR3+7FXyP5v/wCcW/Nuk3rpYTLLASfTMwYrx9pIw1fpQYqx3/oXzz942v8AwU//
AFSxV3/Qvnn7xtf+Cn/6pYq7/oXzz942v/BT/wDVLFXf9C+efvG1/wCCn/6pYq7/AKF88/eNr/wU
/wD1SxV3/Qvnn7xtf+Cn/wCqWKu/6F88/eNr/wAFP/1SxV3/AEL55+8bX/gp/wDqlirv+hfPP3ja
/wDBT/8AVLFXf9C+efvG1/4Kf/qlirv+hfPP3ja/8FP/ANUsVd/0L55+8bX/AIKf/qlirv8AoXzz
942v/BT/APVLFXf9C+efvG1/4Kf/AKpYq7/oXzz942v/AAU//VLFXf8AQvnn7xtf+Cn/AOqWKu/6
F88/eNr/AMFP/wBUsVd/0L55+8bX/gp/+qWKu/6F88/eNr/wU/8A1SxV3/Qvnn7xtf8Agp/+qWKu
/wChfPP3ja/8FP8A9UsVd/0L55+8bX/gp/8AqliqL0z/AJxz85XFwEu54IIu7xiWRv8AgWWP9eKv
evys/JPTPLg/0WEz3sgHr3UtC5HWjECiJ/kjr3xV7vpthHY2qwpuert4se+KorFXYq7FXYq7FXYq
tkijlUpIgdD1VgCPxxVCnRtLJ/3mT7sVd+htL/5Zk/HFXfobS/8AlmT8cVd+htL/AOWZPxxV36G0
v/lmT8cVd+htL/5Zk/HFXfobS/8AlmT8cVd+htL/AOWZPxxV36G0v/lmT8cVd+htL/5Zk/HFXfob
S/8AlmT8cVd+htL/AOWZPxxV36G0v/lmT8cVd+htL/5Zk/HFXfobS/8AlmT8cVd+htL/AOWZPxxV
36G0v/lmT8cVd+htL/5Zk/HFXfobS/8AlmT8cVd+htL/AOWZPxxV36G0v/lmT8cVd+htL/5Zk/HF
XDRtLB/3mT7sVRUcUcShI0CIOiqAB+GKrsVdirsVf//Z</xapGImg:image>
              </rdf:li>
            </rdf:Alt>
          </xap:Thumbnails>
        </rdf:Description>
        <rdf:Description
           rdf:about="uuid:94c1dfe9-2a61-46f4-957b-513b62ef1262">
          <xapMM:DocumentID>
uuid:87e6a4e5-6600-460d-b043-92690c747e6d</xapMM:DocumentID>
        </rdf:Description>
        <rdf:Description
           rdf:about="uuid:94c1dfe9-2a61-46f4-957b-513b62ef1262">
          <dc:format>
image/svg+xml</dc:format>
          <dc:title>
            <rdf:Alt>
              <rdf:li
                 xml:lang="x-default">
mime.ai</rdf:li>
            </rdf:Alt>
          </dc:title>
        </rdf:Description>
      </rdf:RDF>
    </x:xmpmeta>
    <xpacket>end='w'    </xpacket>
  </metadata>
  <g
     id="Layer_1">
    <path
       opacity="0.2"
       d="M44,15.5c-9.374,0-17,7.626-17,17v200c0,9.374,7.626,17,17,17h176c9.375,0,17-7.626,17-17v-200     c0-9.374-7.625-17-17-17H44z"
       id="path551" />
    <path
       opacity="0.2"
       d="M42,13.5c-9.374,0-17,7.626-17,17v200c0,9.374,7.626,17,17,17h176c9.375,0,17-7.626,17-17v-200     c0-9.374-7.625-17-17-17H42z"
       id="path552" />
    <path
       opacity="0.2"
       d="M40,12.5c-9.374,0-17,7.626-17,17v200c0,9.374,7.626,17,17,17h176c9.375,0,17-7.626,17-17v-200     c0-9.374-7.625-17-17-17H40z"
       id="path553" />
    <linearGradient
       id="XMLID_9_"
       gradientUnits="userSpaceOnUse"
       x1="128.9995"
       y1="11"
       x2="128.9995"
       y2="245.0005">
      <stop
         offset="0"
         style="stop-color:#494949"
         id="stop555" />
      <stop
         offset="1"
         style="stop-color:#000000"
         id="stop556" />
      <a:midPointStop
         offset="0"
         style="stop-color:#494949"
         id="midPointStop557" />
      <a:midPointStop
         offset="0.5"
         style="stop-color:#494949"
         id="midPointStop558" />
      <a:midPointStop
         offset="1"
         style="stop-color:#000000"
         id="midPointStop559" />
    </linearGradient>
    <path
       fill="url(#XMLID_9_)"
       d="M41,11c-9.374,0-17,7.626-17,17v200c0,9.374,7.626,17,17,17h176c9.375,0,17-7.626,17-17V28     c0-9.374-7.625-17-17-17H41z"
       id="path560" />
    <path
       fill="#FFFFFF"
       d="M28,228c0,6.627,5.373,12,12,12h176c6.627,0,12-5.373,12-12V28c0-6.627-5.373-12-12-12H40     c-6.627,0-12,5.373-12,12V228z"
       id="path561" />
    <linearGradient
       id="XMLID_10_"
       gradientUnits="userSpaceOnUse"
       x1="29.0532"
       y1="29.0532"
       x2="226.9471"
       y2="226.9471">
      <stop
         offset="0"
         style="stop-color:#FFFFFF"
         id="stop563" />
      <stop
         offset="1"
         style="stop-color:#DADADA"
         id="stop564" />
      <a:midPointStop
         offset="0"
         style="stop-color:#FFFFFF"
         id="midPointStop565" />
      <a:midPointStop
         offset="0.5"
         style="stop-color:#FFFFFF"
         id="midPointStop566" />
      <a:midPointStop
         offset="1"
         style="stop-color:#DADADA"
         id="midPointStop567" />
    </linearGradient>
    <path
       fill="url(#XMLID_10_)"
       d="M40,21c-3.86,0-7,3.14-7,7v200c0,3.859,3.14,7,7,7h176c3.859,0,7-3.141,7-7V28     c0-3.86-3.141-7-7-7H40z"
       id="path568" />
    <g
       id="g569">
      <path
         fill="none"
         d="M151.084,56.005c-18.621,11.298,27.717,149.893,50.292,120.646c25.396-32.906-174.091,9.946-136.042,27.712      C109.917,225.173,185.79,34.932,151.084,56.005z"
         id="path570" />
      <path
         fill="none"
         d="M145.255,51.866c-18.618,11.302,27.722,149.897,50.299,120.646c25.397-32.9-174.097,9.947-136.038,27.71      C104.099,221.034,179.966,30.796,145.255,51.866z"
         id="path571" />
      <path
         opacity="0.2"
         d="M145.958,52.801c-13.955,9.449-5.518,36.747-2.447,49.556c5.616,23.422,14.021,48.225,27.931,68.118      c4.088,5.842,9.303,12.212,16.765,13.404c7.247,1.164,14.421-4.048,17.536-10.276c6.521-13.05-16.097-13.611-23.26-13.656      c-21.297-0.135-42.961,4.088-63.641,8.799c-18.844,4.294-38.858,9.282-55.742,19.001c-4.43,2.553-9.753,6.316-10.542,11.756      c-0.765,5.261,6.599,8.243,10.488,9.153c17.333,4.069,33.11-11.491,43.28-23.326c22.536-26.237,38.462-60.078,49.56-92.599      c3.64-10.657,8.138-23.222,7.146-34.688c-0.849-9.945-10.073-9.327-17.069-5.239c-6.79,3.969,0.365,8.07,5.523,5.061      c1.245-0.732-1.068-0.572-0.501-0.004c0.696,0.699,0.963,3.671,0.97,5.307c0.047,7.808-2.32,15.712-4.532,23.109      c-6.877,23.003-17.126,45.324-29.044,66.125c-9.418,16.427-21.929,38.57-39.77,47.217c-4.649,2.256-10.546,2.477-14.427-1.459      c-0.743-0.75-0.482-1.355-0.156-1.839c0.777-1.14,3.117-2.657,5.275-3.895c16.67-9.601,37.565-13.731,56.145-17.697      c19.276-4.123,40.154-8.265,59.963-6.604c3.365,0.278,10.137,1.149,10.266,4.056c0.049,1.109-1.011,3.09-2.096,3.908      c-1.031,0.768,0.973,0.063-0.244-0.13c-1.336-0.21-2.669-1.265-3.703-2.055c-7.561-5.746-12.328-15.381-16.488-23.652      c-5.786-11.526-10.313-23.694-14.191-35.973c-3.703-11.743-6.742-23.799-8.271-36.029c-0.579-4.658-0.855-9.374-0.525-14.06      c0.112-1.525,0.345-3.031,0.773-4.499c0.279-0.941,1.589-2.521,0.558-1.823c6.48-4.385-0.494-8.461-5.523-5.06L145.958,52.801z"
         id="path572" />
      <path
         opacity="0.2"
         d="M144.226,51.069c-13.954,9.449-5.52,36.748-2.444,49.556c5.613,23.422,14.016,48.223,27.926,68.117      c4.088,5.842,9.303,12.21,16.768,13.404c7.246,1.166,14.421-4.048,17.533-10.277c6.522-13.048-16.097-13.61-23.257-13.656      c-21.298-0.135-42.961,4.088-63.644,8.799c-18.841,4.293-38.857,9.283-55.74,19.001c-4.43,2.554-9.753,6.316-10.542,11.757      c-0.765,5.26,6.598,8.244,10.487,9.154c17.334,4.067,33.112-11.493,43.282-23.328c22.536-26.236,38.463-60.079,49.561-92.598      c3.637-10.658,8.135-23.223,7.148-34.688c-0.852-9.946-10.076-9.329-17.072-5.241c-6.79,3.969,0.365,8.072,5.521,5.062      c1.247-0.731-1.068-0.571-0.499-0.004c0.696,0.699,0.964,3.669,0.971,5.307c0.049,7.806-2.32,15.712-4.535,23.109      c-6.877,23.003-17.124,45.324-29.044,66.123c-9.417,16.429-21.929,38.571-39.768,47.218c-4.65,2.255-10.546,2.478-14.428-1.458      c-0.742-0.75-0.483-1.354-0.156-1.84c0.777-1.137,3.118-2.654,5.276-3.895c16.667-9.601,37.564-13.731,56.143-17.697      c19.277-4.121,40.153-8.262,59.964-6.605c3.365,0.279,10.137,1.149,10.264,4.058c0.051,1.107-1.008,3.088-2.094,3.907      c-1.033,0.769,0.973,0.063-0.246-0.131c-1.336-0.21-2.664-1.263-3.7-2.055c-7.562-5.743-12.331-15.381-16.491-23.649      c-5.786-11.528-10.31-23.694-14.188-35.974c-3.703-11.741-6.741-23.801-8.271-36.029c-0.579-4.658-0.855-9.375-0.524-14.062      c0.109-1.524,0.344-3.029,0.775-4.497c0.276-0.941,1.587-2.523,0.553-1.823c6.483-4.386-0.492-8.46-5.521-5.059L144.226,51.069z      "
         id="path573" />
      <radialGradient
         id="XMLID_11_"
         cx="146.0186"
         cy="139.3574"
         r="49.2525"
         fx="146.0186"
         fy="139.3574"
         gradientUnits="userSpaceOnUse">
        <stop
           offset="0"
           style="stop-color:#990000"
           id="stop575" />
        <stop
           offset="1"
           style="stop-color:#F8310E"
           id="stop576" />
        <a:midPointStop
           offset="0"
           style="stop-color:#990000"
           id="midPointStop577" />
        <a:midPointStop
           offset="0.5"
           style="stop-color:#990000"
           id="midPointStop578" />
        <a:midPointStop
           offset="1"
           style="stop-color:#F8310E"
           id="midPointStop579" />
      </radialGradient>
      <path
         fill="url(#XMLID_11_)"
         d="M142.494,49.335c-13.958,9.451-5.52,36.748-2.447,49.557      c5.613,23.423,14.018,48.226,27.928,68.118c4.088,5.84,9.305,12.211,16.766,13.402c7.246,1.167,14.421-4.047,17.535-10.276      c6.521-13.048-16.097-13.61-23.257-13.654c-21.3-0.135-42.961,4.086-63.644,8.8c-18.843,4.292-38.858,9.279-55.74,18.998      c-4.432,2.556-9.752,6.317-10.543,11.759c-0.764,5.258,6.598,8.241,10.487,9.152c17.333,4.067,33.111-11.49,43.282-23.326      c22.536-26.238,38.462-60.081,49.56-92.599c3.64-10.658,8.137-23.225,7.148-34.69c-0.852-9.946-10.076-9.328-17.072-5.24      c-6.787,3.969,0.365,8.073,5.524,5.061c1.247-0.729-1.069-0.571-0.502-0.003c0.696,0.7,0.966,3.67,0.971,5.306      c0.049,7.808-2.32,15.712-4.533,23.109c-6.876,23.003-17.124,45.325-29.043,66.125c-9.421,16.426-21.932,38.572-39.771,47.216      c-4.648,2.257-10.544,2.479-14.428-1.459c-0.738-0.749-0.478-1.354-0.155-1.839c0.776-1.138,3.117-2.655,5.277-3.894      c16.667-9.602,37.563-13.732,56.144-17.695c19.274-4.124,40.155-8.266,59.962-6.607c3.37,0.281,10.137,1.15,10.266,4.056      c0.052,1.111-1.01,3.091-2.096,3.909c-1.031,0.767,0.976,0.063-0.243-0.131c-1.336-0.21-2.667-1.265-3.703-2.053      c-7.562-5.747-12.328-15.383-16.486-23.653c-5.789-11.525-10.314-23.693-14.193-35.972c-3.701-11.742-6.741-23.802-8.269-36.03      c-0.582-4.656-0.858-9.374-0.527-14.06c0.112-1.526,0.347-3.03,0.775-4.5c0.276-0.941,1.589-2.521,0.556-1.823      c6.48-4.386-0.495-8.46-5.524-5.059L142.494,49.335z"
         id="path580" />
      <linearGradient
         id="XMLID_12_"
         gradientUnits="userSpaceOnUse"
         x1="75.0591"
         y1="175.8857"
         x2="79.012"
         y2="186.428">
        <stop
           offset="0"
           style="stop-color:#FFFFFF"
           id="stop582" />
        <stop
           offset="1"
           style="stop-color:#F8310E"
           id="stop583" />
        <a:midPointStop
           offset="0"
           style="stop-color:#FFFFFF"
           id="midPointStop584" />
        <a:midPointStop
           offset="0.5"
           style="stop-color:#FFFFFF"
           id="midPointStop585" />
        <a:midPointStop
           offset="1"
           style="stop-color:#F8310E"
           id="midPointStop586" />
      </linearGradient>
      <path
         fill="url(#XMLID_12_)"
         d="M59.311,196.072c-1.119-1.136-1.103-2.306-0.993-2.908l0.607-1.413      c0.532-0.776,1.715-2.08,5.931-4.5c8.327-4.801,18.361-8.657,31.571-12.149l5.175-1.371c1.555-1.171,2.747-2.587,3.153-4.188      l-0.218,0.326l-0.743,0.184c-12.719,3.169-29.125,7.841-43.18,15.931c-3.689,2.126-8.688,5.483-9.526,10.049l-0.048,0.283      c-0.326,2.242,1.933,4.123,4.621,5.415c2.474-1.238,4.997-2.178,7.41-3.114C61.676,198.009,60.397,197.175,59.311,196.072z"
         id="path587" />
      <linearGradient
         id="XMLID_13_"
         gradientUnits="userSpaceOnUse"
         x1="190.0859"
         y1="156.2432"
         x2="188.1033"
         y2="164.1738">
        <stop
           offset="0"
           style="stop-color:#FFFFFF"
           id="stop589" />
        <stop
           offset="1"
           style="stop-color:#F8310E"
           id="stop590" />
        <a:midPointStop
           offset="0"
           style="stop-color:#FFFFFF"
           id="midPointStop591" />
        <a:midPointStop
           offset="0.5"
           style="stop-color:#FFFFFF"
           id="midPointStop592" />
        <a:midPointStop
           offset="1"
           style="stop-color:#F8310E"
           id="midPointStop593" />
      </linearGradient>
      <path
         fill="url(#XMLID_13_)"
         d="M200.921,163.831c-1.209-1.964-5.655-5.275-21.911-5.381l-2.145,0.082l-1.317,0.058      c0.228,1.407,0.626,2.684,1.179,3.855l4.396,0.2c0,0,0.978,0.046,0.982,0.048c7.974,0.661,11.923,2.604,12.068,5.932      l-0.07,0.958c-0.216,1.189-0.912,2.536-1.768,3.573c1.441,0.412,2.911,0.777,4.385,1.107c1.592-1.497,2.904-3.236,3.793-5.008      C201.643,166.998,201.776,165.223,200.921,163.831z"
         id="path594" />
      <linearGradient
         id="XMLID_14_"
         gradientUnits="userSpaceOnUse"
         x1="-83.3345"
         y1="43.8262"
         x2="-83.3345"
         y2="15.7036"
         gradientTransform="matrix(0.9835 0.1809 -0.1809 0.9835 267.8761 169.5064)">
        <stop
           offset="0"
           style="stop-color:#CF0000"
           id="stop596" />
        <stop
           offset="1"
           style="stop-color:#F8310E"
           id="stop597" />
        <a:midPointStop
           offset="0"
           style="stop-color:#CF0000"
           id="midPointStop598" />
        <a:midPointStop
           offset="0.5"
           style="stop-color:#CF0000"
           id="midPointStop599" />
        <a:midPointStop
           offset="1"
           style="stop-color:#F8310E"
           id="midPointStop600" />
      </linearGradient>
      <path
         fill="url(#XMLID_14_)"
         d="M192.336,173.156c-0.33,0.401-0.675,0.758-1.036,1.033l-1.017,0.771c0,0-0.46-0.285-0.905-0.571      c-1.689-0.325-3.173-1.448-4.268-2.284c-2.196-1.668-4.155-3.633-6.316-6.288l-1.873-2.304c-2.503,0.703-5.024,1.478-7.512,2.09      l0.181,0.276c4.142,5.919,8.881,11.534,15.462,12.592c4.326,0.692,8.545-1.28,11.669-4.208      C195.247,173.934,193.777,173.568,192.336,173.156z"
         id="path601" />
      <linearGradient
         id="XMLID_15_"
         gradientUnits="userSpaceOnUse"
         x1="133.0703"
         y1="161.585"
         x2="133.7553"
         y2="166.3694">
        <stop
           offset="0"
           style="stop-color:#FFFFFF"
           id="stop603" />
        <stop
           offset="1"
           style="stop-color:#F8310E"
           id="stop604" />
        <a:midPointStop
           offset="0"
           style="stop-color:#FFFFFF"
           id="midPointStop605" />
        <a:midPointStop
           offset="0.5"
           style="stop-color:#FFFFFF"
           id="midPointStop606" />
        <a:midPointStop
           offset="1"
           style="stop-color:#F8310E"
           id="midPointStop607" />
      </linearGradient>
      <path
         fill="url(#XMLID_15_)"
         d="M115.943,167.171l-4.932,1.123l0.506-0.738c-2.572,1.314-5.233,2.563-7.744,3.984      c-0.567,0.799-1.303,1.538-2.171,2.19l0.168-0.045c2.562-0.966,5.277-2.127,8.247-1.854l9.659-2.095l1.896-0.4      c14.375-3.075,29.666-6.139,44.652-6.851l0.18-0.012c-1.314-1.734-3.923-2.09-5.751-3.099      C144.783,160.906,129.177,164.156,115.943,167.171z"
         id="path608" />
      <linearGradient
         id="XMLID_16_"
         gradientUnits="userSpaceOnUse"
         x1="140.3477"
         y1="45.4175"
         x2="140.3477"
         y2="56.588">
        <stop
           offset="0"
           style="stop-color:#FFFFFF"
           id="stop610" />
        <stop
           offset="1"
           style="stop-color:#F8310E"
           id="stop611" />
        <a:midPointStop
           offset="0"
           style="stop-color:#FFFFFF"
           id="midPointStop612" />
        <a:midPointStop
           offset="0.5"
           style="stop-color:#FFFFFF"
           id="midPointStop613" />
        <a:midPointStop
           offset="1"
           style="stop-color:#F8310E"
           id="midPointStop614" />
      </linearGradient>
      <path
         fill="url(#XMLID_16_)"
         d="M176.033,162.417l0.693,0.028c-0.553-1.172-0.951-2.448-1.179-3.855l-1.786,0.083l-0.502-1.04      l-5.344-9.967c-5.18-10.31-9.857-22.17-14.304-36.264c-1.835-5.814-3.44-11.556-4.758-17.065l-0.138-0.576l0.871-2.415      l0.969-2.715l0.422-1.238c2.146-6.254,4.572-13.342,5.845-20.26c0.849-4.626,1.106-8.68,0.785-12.39      c-0.239-2.804-1.235-4.677-2.958-5.567c-2.568-1.335-6.949-0.605-11.163,1.858l-0.047,0.04c-0.685,0.41-1.155,0.809-1.493,1.269      l-0.089,0.126l-0.114,0.108c-2.29,2.281-3.816,5.412-4.533,9.308c-1.873,10.187,1.552,23.796,3.818,32.805l0.436,1.729      l-0.204,0.561c-6.318,17.615-14.61,35.427-24.64,52.931l-0.119,0.206c-3.384,5.901-7.217,12.589-11.544,19.113l-0.202,0.312      c-0.18,0.705-0.533,1.367-0.982,1.997c2.51-1.422,5.171-2.67,7.744-3.984l2.37-3.425c10.43-15.101,19.833-32.719,27.95-52.357      l2.153-5.222l1.559,5.434c4.974,17.385,10.873,31.878,18.026,44.305l1.532,2.666l-3.063,0.278      c-0.466,0.038-0.926,0.1-1.392,0.142c1.828,1.009,4.437,1.364,5.751,3.099l0.966-0.046l1.299,2.038l0.74,1.137      c2.487-0.612,5.009-1.387,7.512-2.09L176.033,162.417 M149.115,71.042l-0.249,1.031l-3.881-0.252      c-0.413-4.481-0.49-7.949-0.258-11.238v-0.001l0.349-2.799l0.502-2.112c0-0.003,2.764-5.985,2.764-5.985l1.472,4.95      c0.466,1.451,0.64,3.631,0.646,5.056c0.019,2.912-0.278,5.986-0.907,9.405L149.115,71.042z"
         id="path615" />
    </g>
    <rect
       id="_x3C_Slice_x3E_"
       fill="none"
       width="256"
       height="256" />
  </g>
</svg>
