<?xml version="1.0" encoding="UTF-8" standalone="no"?>
<svg
   xmlns:dc="http://purl.org/dc/elements/1.1/"
   xmlns:cc="http://web.resource.org/cc/"
   xmlns:rdf="http://www.w3.org/1999/02/22-rdf-syntax-ns#"
   xmlns:svg="http://www.w3.org/2000/svg"
   xmlns="http://www.w3.org/2000/svg"
   xmlns:sodipodi="http://sodipodi.sourceforge.net/DTD/sodipodi-0.dtd"
   xmlns:inkscape="http://www.inkscape.org/namespaces/inkscape"
   version="1.1"
   width="128"
   height="128"
   viewBox="0 0 128 128"
   overflow="visible"
   enable-background="new 0 0 128 128"
   xml:space="preserve"
   id="svg1947"
   sodipodi:version="0.32"
   inkscape:version="0.44"
   sodipodi:docname="90.svg"
   sodipodi:docbase="/home/emx/Desktop/eog icons"><metadata
   id="metadata1984"><rdf:RDF><cc:Work
       rdf:about=""><dc:format>image/svg+xml</dc:format><dc:type
         rdf:resource="http://purl.org/dc/dcmitype/StillImage" /></cc:Work></rdf:RDF></metadata><defs
   id="defs1982" /><sodipodi:namedview
   inkscape:window-height="625"
   inkscape:window-width="914"
   inkscape:pageshadow="2"
   inkscape:pageopacity="0.0"
   guidetolerance="10.0"
   gridtolerance="10.0"
   objecttolerance="10.0"
   borderopacity="1.0"
   bordercolor="#666666"
   pagecolor="#ffffff"
   id="base"
   inkscape:zoom="3.1796875"
   inkscape:cx="64"
   inkscape:cy="64"
   inkscape:window-x="177"
   inkscape:window-y="131"
   inkscape:current-layer="svg1947" />
	<path
   d="M 122.7258,79.461795 L 80.4988,121.6898 C 80.3108,121.8778 80.0568,121.9828 79.7918,121.9828 C 79.5268,121.9828 79.2718,121.8778 79.0848,121.6898 L 36.8578,79.461795 C 36.5708,79.175795 36.4858,78.745795 36.6408,78.371795 C 36.7948,77.997795 37.1608,77.754795 37.5648,77.754795 C 37.5648,77.754795 60.0548,77.754795 61.8998,77.754795 C 61.8998,75.904795 61.8998,52.662795 61.8998,52.662795 C 61.8998,43.516795 53.6838,21.582795 33.3448,21.582795 C 13.677805,21.582795 8.6568048,32.516795 8.4528048,32.981795 C 8.2378048,33.469795 7.6778048,33.706795 7.1798048,33.515795 C 6.6818048,33.326795 6.4198048,32.780795 6.5848048,32.273795 C 6.6698048,32.009795 15.591805,5.9657953 52.9508,5.9657953 C 89.7218,5.9657953 97.6808,40.240795 97.6808,48.725795 C 97.6808,48.725795 97.6808,75.884795 97.6808,77.753795 C 99.5258,77.753795 122.0168,77.753795 122.0168,77.753795 C 122.4208,77.753795 122.7858,77.996795 122.9408,78.370795 C 123.0958,78.744795 123.0118,79.174795 122.7258,79.461795 z "
   id="path1949"
   style="opacity:0.2" />
	<path
   d="M 123.43511,80.167105 C 123.43511,80.168105 81.20611,122.3961 81.20611,122.3961 C 80.82811,122.7741 80.32611,122.9821 79.79211,122.9821 C 79.25811,122.9821 78.75611,122.7741 78.37811,122.3961 L 36.15111,80.168105 C 35.57711,79.595105 35.40711,78.738105 35.71711,77.989105 C 36.02711,77.238105 36.75211,76.754105 37.56511,76.754105 C 37.56511,76.754105 59.06111,76.754105 60.90011,76.754105 C 60.90011,74.910105 60.90011,52.662105 60.90011,52.662105 C 60.90011,43.809105 52.97111,22.582105 33.34511,22.582105 C 14.321105,22.582105 9.5631048,32.941105 9.3691048,33.383105 C 8.9391048,34.362105 7.8211048,34.831105 6.8231048,34.450105 C 5.8261048,34.070105 5.3021048,32.977105 5.6351048,31.963105 C 5.7211048,31.695105 14.824105,4.9661053 52.95111,4.9661053 C 90.54411,4.9661053 98.68111,40.043105 98.68111,48.726105 C 98.68111,48.726105 98.68111,74.890105 98.68111,76.754105 C 100.52011,76.754105 122.01711,76.754105 122.01711,76.754105 C 122.82911,76.754105 123.55511,77.238105 123.86511,77.988105 C 124.17611,78.737105 124.00711,79.592105 123.43511,80.167105 z "
   id="path1951"
   style="opacity:0.2" />
	<linearGradient
   id="XMLID_5_"
   gradientUnits="userSpaceOnUse"
   x1="66.4351"
   y1="99.3262"
   x2="63.268"
   y2="25.6596"
   gradientTransform="matrix(0,-1,-1,0,127.7508,127.7518)">
		<stop
   offset="0"
   style="stop-color:#D15F00"
   id="stop1954" />
		<stop
   offset="1"
   style="stop-color:#D96E00"
   id="stop1956" />
	</linearGradient>
	<path
   d="M 122.7258,78.461795 L 80.4988,120.6898 C 80.3108,120.8778 80.0568,120.9828 79.7918,120.9828 C 79.5268,120.9828 79.2718,120.8778 79.0848,120.6898 L 36.8578,78.461795 C 36.5708,78.175795 36.4858,77.745795 36.6408,77.371795 C 36.7948,76.997795 37.1608,76.754795 37.5648,76.754795 C 37.5648,76.754795 60.0548,76.754795 61.8998,76.754795 C 61.8998,74.904795 61.8998,51.662795 61.8998,51.662795 C 61.8998,42.516795 53.6838,20.582795 33.3448,20.582795 C 13.677805,20.582795 8.6568048,31.516795 8.4528048,31.981795 C 8.2378048,32.469795 7.6778048,32.706795 7.1798048,32.515795 C 6.6818048,32.326795 6.4198048,31.780795 6.5848048,31.273795 C 6.6698048,31.009795 15.591805,4.9657953 52.9508,4.9657953 C 89.7218,4.9657953 97.6808,39.240795 97.6808,47.725795 C 97.6808,47.725795 97.6808,74.884795 97.6808,76.753795 C 99.5258,76.753795 122.0168,76.753795 122.0168,76.753795 C 122.4208,76.753795 122.7858,76.996795 122.9408,77.370795 C 123.0958,77.744795 123.0118,78.174795 122.7258,78.461795 z "
   id="path1958"
   style="fill:url(#XMLID_5_)" />
	<linearGradient
   id="XMLID_6_"
   gradientUnits="userSpaceOnUse"
   x1="64.777"
   y1="55.413372"
   x2="81.768"
   y2="130.6001"
   gradientTransform="matrix(0,-1,-1,0,127.751,127.751)">
		<stop
   offset="0"
   style="stop-color:#ED7C00"
   id="stop1961" />
		<stop
   offset="1"
   style="stop-color:#F89000"
   id="stop1963" />
	</linearGradient>
	<path
   d="M 95.42402,46.468015 C 95.42402,51.043015 96.682005,77.754 96.682005,77.754 L 122.019,77.754 L 79.792005,119.982 L 37.566005,77.754 L 62.900005,77.754 C 62.900005,77.754 62.900005,60.105 62.900005,51.662 C 62.900005,41.626 53.987005,19.581995 33.345005,19.581995 C 12.700005,19.581995 7.5350048,31.583 7.5350048,31.583 C 7.5350048,31.583 15.885005,5.9659953 52.951005,5.9659953 C 90.017005,5.9659953 95.42402,39.783015 95.42402,46.468015 z "
   id="path1965"
   style="fill:url(#XMLID_6_)"
   inkscape:transform-center-y="-19.184277"
   inkscape:transform-center-x="-5.6609313"
   sodipodi:nodetypes="ccccccsscsc" />
	<linearGradient
   id="XMLID_7_"
   gradientUnits="userSpaceOnUse"
   x1="46.8535"
   y1="23.5815"
   x2="92.8537"
   y2="120.0819"
   gradientTransform="matrix(0,-1,1,0,-19.06,148.614)">
		<stop
   offset="0"
   style="stop-color:#ED7C00"
   id="stop1968" />
		<stop
   offset="1"
   style="stop-color:#FFA000"
   id="stop1970" />
	</linearGradient>
	
	<linearGradient
   id="XMLID_8_"
   gradientUnits="userSpaceOnUse"
   x1="8.522"
   y1="28.0591"
   x2="107.11935"
   y2="49.099743"
   gradientTransform="matrix(0,-1,-1,0,128.1947,127.8671)">
		<stop
   offset="0"
   style="stop-color:#FABD8C"
   id="stop1975" />
		<stop
   offset="1"
   style="stop-color:#F8A039"
   id="stop1977" />
	</linearGradient>
	<path
   d="M 66.922814,72.273113 C 72.767814,46.747113 79.768718,14.272115 79.768718,14.272115 C 93.947718,25.065115 97.125718,43.22512 97.125718,47.84212 C 97.125718,52.41712 97.125718,77.87012 97.125718,77.87012 L 122.46272,77.87012 L 80.235718,120.09812 L 60.254266,99.489678 C 60.254266,99.489678 58.247347,103.14556 66.922814,72.273113 z "
   id="path1979"
   style="fill:url(#XMLID_8_)"
   sodipodi:nodetypes="ccsccccc" />
</svg>